<?xml version="1.0" standalone="no"?>
<!DOCTYPE svg PUBLIC "-//W3C//DTD SVG 1.1//EN" "http://www.w3.org/Graphics/SVG/1.1/DTD/svg11.dtd">
<svg width="100%" height="100%" viewBox="0 0 400 390" version="1.1" xmlns="http://www.w3.org/2000/svg" xmlns:xlink="http://www.w3.org/1999/xlink" xml:space="preserve" style="fill-rule:evenodd;clip-rule:evenodd;stroke-linejoin:round;stroke-miterlimit:1.41421;">
    <g transform="matrix(1.15381e-17,0.193348,-3.71949,2.2837e-16,532.092,8.41712)">
        <rect x="11.505" y="38.202" width="362.041" height="102.164" style="fill:url(#_Linear1);"/>
    </g>
    <g transform="matrix(0.961999,-7.78644e-18,-8.15526e-18,0.733009,-0.139824,-1.96626)">
        <path d="M135.281,66.616C135.281,60.969 131.787,56.384 127.484,56.384L28.732,56.384C24.429,56.384 20.935,60.969 20.935,66.616L20.935,87.079C20.935,92.726 24.429,97.311 28.732,97.311L127.484,97.311C131.787,97.311 135.281,92.726 135.281,87.079L135.281,66.616Z" style="fill:rgb(41,128,185);"/>
    </g>
    <g transform="matrix(0.961999,-7.78644e-18,-8.15526e-18,0.733009,124.86,-1.96626)">
        <path d="M135.281,66.616C135.281,60.969 131.787,56.384 127.484,56.384L28.732,56.384C24.429,56.384 20.935,60.969 20.935,66.616L20.935,87.079C20.935,92.726 24.429,97.311 28.732,97.311L127.484,97.311C131.787,97.311 135.281,92.726 135.281,87.079L135.281,66.616Z" style="fill:rgb(41,128,185);"/>
    </g>
    <g transform="matrix(0.961999,-7.78644e-18,-8.15526e-18,0.733009,249.86,-1.96626)">
        <path d="M135.281,66.616C135.281,60.969 131.787,56.384 127.484,56.384L28.732,56.384C24.429,56.384 20.935,60.969 20.935,66.616L20.935,87.079C20.935,92.726 24.429,97.311 28.732,97.311L127.484,97.311C131.787,97.311 135.281,92.726 135.281,87.079L135.281,66.616Z" style="fill:rgb(41,128,185);"/>
    </g>
    <g transform="matrix(1,0,0,1,-79.9957,-181.784)">
        <text x="97.099px" y="210.373px" style="font-family:'ArialMT';font-size:14px;fill:white;">User Interface</text>
    </g>
    <g transform="matrix(1,0,0,1,-13.7889,-40.6106)">
        <text x="51.841px" y="99.505px" style="font-family:'ArialMT';font-size:14px;fill:white;">CernVM-FS</text>
    </g>
    <g transform="matrix(1,0,0,1,111.211,-40.6106)">
        <text x="63.51px" y="99.505px" style="font-family:'ArialMT';font-size:14px;fill:white;">libcvmfs</text>
    </g>
    <g transform="matrix(1,0,0,1,236.211,-40.7747)">
        <text x="47.172px" y="99.505px" style="font-family:'ArialMT';font-size:14px;fill:white;">cvmfs_server</text>
    </g>
    <g transform="matrix(1.91883e-17,0.331454,-3.71949,2.35113e-16,532.092,86.8283)">
        <rect x="11.505" y="38.202" width="362.041" height="102.164" style="fill:url(#_Linear2);"/>
    </g>
    <g transform="matrix(0.961999,-7.78644e-18,-8.15526e-18,0.733009,-0.139824,78.0337)">
        <path d="M135.281,66.616C135.281,60.969 131.787,56.384 127.484,56.384L28.732,56.384C24.429,56.384 20.935,60.969 20.935,66.616L20.935,87.079C20.935,92.726 24.429,97.311 28.732,97.311L127.484,97.311C131.787,97.311 135.281,92.726 135.281,87.079L135.281,66.616Z" style="fill:rgb(31,187,78);"/>
    </g>
    <g transform="matrix(0.961999,-7.78644e-18,-8.15526e-18,0.733009,124.86,78.0337)">
        <path d="M135.281,66.616C135.281,60.969 131.787,56.384 127.484,56.384L28.732,56.384C24.429,56.384 20.935,60.969 20.935,66.616L20.935,87.079C20.935,92.726 24.429,97.311 28.732,97.311L127.484,97.311C131.787,97.311 135.281,92.726 135.281,87.079L135.281,66.616Z" style="fill:rgb(31,187,78);"/>
    </g>
    <g transform="matrix(0.961999,-7.78644e-18,-8.15526e-18,0.733009,249.86,78.0337)">
        <path d="M135.281,66.616C135.281,60.969 131.787,56.384 127.484,56.384L28.732,56.384C24.429,56.384 20.935,60.969 20.935,66.616L20.935,87.079C20.935,92.726 24.429,97.311 28.732,97.311L127.484,97.311C131.787,97.311 135.281,92.726 135.281,87.079L135.281,66.616Z" style="fill:rgb(31,187,78);"/>
    </g>
    <g transform="matrix(1,0,0,1,-79.9957,-101.784)">
        <text x="97.099px" y="210.373px" style="font-family:'ArialMT';font-size:14px;fill:white;">Components</text>
    </g>
    <g transform="matrix(1,0,0,1,-13.7889,39.3894)">
        <text x="43.658px" y="99.505px" style="font-family:'ArialMT';font-size:14px;fill:white;">Download Mgr</text>
    </g>
    <g transform="matrix(1,0,0,1,111.211,39.3894)">
        <text x="64.661px" y="99.505px" style="font-family:'ArialMT';font-size:14px;fill:white;">Spooler</text>
    </g>
    <g transform="matrix(1,0,0,1,236.211,39.2253)">
        <text x="50.661px" y="99.505px" style="font-family:'ArialMT';font-size:14px;fill:white;">Catalog Mgr</text>
    </g>
    <g transform="matrix(0.961999,-7.78644e-18,-8.15526e-18,0.733009,61.417,120.79)">
        <path d="M135.281,66.616C135.281,60.969 131.787,56.384 127.484,56.384L28.732,56.384C24.429,56.384 20.935,60.969 20.935,66.616L20.935,87.079C20.935,92.726 24.429,97.311 28.732,97.311L127.484,97.311C131.787,97.311 135.281,92.726 135.281,87.079L135.281,66.616Z" style="fill:rgb(31,187,78);"/>
    </g>
    <g transform="matrix(1,0,0,1,47.768,81.9817)">
        <text x="54.555px" y="99.505px" style="font-family:'ArialMT';font-size:14px;fill:white;">Cache Mgr</text>
    </g>
    <g transform="matrix(0.961999,-7.78644e-18,-8.15526e-18,0.733009,186.323,121.534)">
        <path d="M135.281,66.616C135.281,60.969 131.787,56.384 127.484,56.384L28.732,56.384C24.429,56.384 20.935,60.969 20.935,66.616L20.935,87.079C20.935,92.726 24.429,97.311 28.732,97.311L127.484,97.311C131.787,97.311 135.281,92.726 135.281,87.079L135.281,66.616Z" style="fill:rgb(31,187,78);"/>
    </g>
    <g transform="matrix(1,0,0,1,172.674,82.7254)">
        <text x="55.72px" y="99.505px" style="font-family:'ArialMT';font-size:14px;fill:white;">Quota Mgr</text>
    </g>
    <g transform="matrix(2.61614e-17,0.438395,-3.71949,2.2837e-16,532.092,215.598)">
        <rect x="11.505" y="38.202" width="362.041" height="102.164" style="fill:url(#_Linear3);"/>
    </g>
    <g transform="matrix(0.961999,-7.78644e-18,-8.15526e-18,0.733009,-0.139824,208.034)">
        <path d="M135.281,66.616C135.281,60.969 131.787,56.384 127.484,56.384L28.732,56.384C24.429,56.384 20.935,60.969 20.935,66.616L20.935,87.079C20.935,92.726 24.429,97.311 28.732,97.311L127.484,97.311C131.787,97.311 135.281,92.726 135.281,87.079L135.281,66.616Z" style="fill:rgb(187,151,31);"/>
    </g>
    <g transform="matrix(0.961999,-7.78644e-18,-8.15526e-18,0.733009,124.86,208.034)">
        <path d="M135.281,66.616C135.281,60.969 131.787,56.384 127.484,56.384L28.732,56.384C24.429,56.384 20.935,60.969 20.935,66.616L20.935,87.079C20.935,92.726 24.429,97.311 28.732,97.311L127.484,97.311C131.787,97.311 135.281,92.726 135.281,87.079L135.281,66.616Z" style="fill:rgb(187,151,31);"/>
    </g>
    <g transform="matrix(0.961999,-7.78644e-18,-8.15526e-18,0.733009,249.86,208.034)">
        <path d="M135.281,66.616C135.281,60.969 131.787,56.384 127.484,56.384L28.732,56.384C24.429,56.384 20.935,60.969 20.935,66.616L20.935,87.079C20.935,92.726 24.429,97.311 28.732,97.311L127.484,97.311C131.787,97.311 135.281,92.726 135.281,87.079L135.281,66.616Z" style="fill:rgb(187,151,31);"/>
    </g>
    <g transform="matrix(1,0,0,1,-79.9957,28.2163)">
        <text x="97.099px" y="210.373px" style="font-family:'ArialMT';font-size:14px;fill:white;">Components</text>
    </g>
    <g transform="matrix(1,0,0,1,-13.7889,169.389)">
        <text x="70.12px" y="99.505px" style="font-family:'ArialMT';font-size:14px;fill:white;">FUSE</text>
    </g>
    <g transform="matrix(1,0,0,1,111.211,169.389)">
        <text x="67.389px" y="99.505px" style="font-family:'ArialMT';font-size:14px;fill:white;">SQLite</text>
    </g>
    <g transform="matrix(1,0,0,1,236.211,169.225)">
        <text x="70.12px" y="99.505px" style="font-family:'ArialMT';font-size:14px;fill:white;">AUFS</text>
    </g>
    <g transform="matrix(0.961999,-7.78644e-18,-8.15526e-18,0.733009,-0.139824,251.901)">
        <path d="M135.281,66.616C135.281,60.969 131.787,56.384 127.484,56.384L28.732,56.384C24.429,56.384 20.935,60.969 20.935,66.616L20.935,87.079C20.935,92.726 24.429,97.311 28.732,97.311L127.484,97.311C131.787,97.311 135.281,92.726 135.281,87.079L135.281,66.616Z" style="fill:rgb(187,151,31);"/>
    </g>
    <g transform="matrix(0.961999,-7.78644e-18,-8.15526e-18,0.733009,124.86,251.901)">
        <path d="M135.281,66.616C135.281,60.969 131.787,56.384 127.484,56.384L28.732,56.384C24.429,56.384 20.935,60.969 20.935,66.616L20.935,87.079C20.935,92.726 24.429,97.311 28.732,97.311L127.484,97.311C131.787,97.311 135.281,92.726 135.281,87.079L135.281,66.616Z" style="fill:rgb(187,151,31);"/>
    </g>
    <g transform="matrix(0.961999,-7.78644e-18,-8.15526e-18,0.733009,249.86,251.901)">
        <path d="M135.281,66.616C135.281,60.969 131.787,56.384 127.484,56.384L28.732,56.384C24.429,56.384 20.935,60.969 20.935,66.616L20.935,87.079C20.935,92.726 24.429,97.311 28.732,97.311L127.484,97.311C131.787,97.311 135.281,92.726 135.281,87.079L135.281,66.616Z" style="fill:rgb(187,151,31);"/>
    </g>
    <g transform="matrix(1,0,0,1,-13.7889,213.256)">
        <text x="66.606px" y="99.505px" style="font-family:'ArialMT';font-size:14px;fill:white;">leveldb</text>
    </g>
    <g transform="matrix(1,0,0,1,111.211,213.256)">
        <text x="70.506px" y="99.505px" style="font-family:'ArialMT';font-size:14px;fill:white;">libcurl</text>
    </g>
    <g transform="matrix(1,0,0,1,236.211,213.092)">
        <text x="69.341px" y="99.505px" style="font-family:'ArialMT';font-size:14px;fill:white;">c-ares</text>
    </g>
    <g transform="matrix(0.961999,-7.78644e-18,-8.15526e-18,0.733009,-0.139824,295.589)">
        <path d="M135.281,66.616C135.281,60.969 131.787,56.384 127.484,56.384L28.732,56.384C24.429,56.384 20.935,60.969 20.935,66.616L20.935,87.079C20.935,92.726 24.429,97.311 28.732,97.311L127.484,97.311C131.787,97.311 135.281,92.726 135.281,87.079L135.281,66.616Z" style="fill:rgb(187,151,31);"/>
    </g>
    <g transform="matrix(0.961999,-7.78644e-18,-8.15526e-18,0.733009,124.86,295.589)">
        <path d="M135.281,66.616C135.281,60.969 131.787,56.384 127.484,56.384L28.732,56.384C24.429,56.384 20.935,60.969 20.935,66.616L20.935,87.079C20.935,92.726 24.429,97.311 28.732,97.311L127.484,97.311C131.787,97.311 135.281,92.726 135.281,87.079L135.281,66.616Z" style="fill:rgb(187,151,31);"/>
    </g>
    <g transform="matrix(0.961999,-7.78644e-18,-8.15526e-18,0.733009,249.86,295.589)">
        <path d="M135.281,66.616C135.281,60.969 131.787,56.384 127.484,56.384L28.732,56.384C24.429,56.384 20.935,60.969 20.935,66.616L20.935,87.079C20.935,92.726 24.429,97.311 28.732,97.311L127.484,97.311C131.787,97.311 135.281,92.726 135.281,87.079L135.281,66.616Z" style="fill:rgb(187,151,31);"/>
    </g>
    <g transform="matrix(1,0,0,1,-13.7889,256.944)">
        <text x="52.599px" y="99.505px" style="font-family:'ArialMT';font-size:14px;fill:white;">sparsehash</text>
    </g>
    <g transform="matrix(1,0,0,1,111.211,256.944)">
        <text x="62.723px" y="99.505px" style="font-family:'ArialMT';font-size:14px;fill:white;">libcrypto</text>
    </g>
    <g transform="matrix(1,0,0,1,236.211,256.78)">
        <text x="78.285px" y="99.505px" style="font-family:'ArialMT';font-size:14px;fill:white;">zlib</text>
    </g>
    <defs>
        <linearGradient id="_Linear1" x1="0" y1="0" x2="1" y2="0" gradientUnits="userSpaceOnUse" gradientTransform="matrix(362.041,0,0,102.164,11.5045,89.2843)"><stop offset="0%" style="stop-color:rgb(41,128,185);stop-opacity:1"/><stop offset="100%" style="stop-color:rgb(235,235,235);stop-opacity:0"/></linearGradient>
        <linearGradient id="_Linear2" x1="0" y1="0" x2="1" y2="0" gradientUnits="userSpaceOnUse" gradientTransform="matrix(362.041,0,0,102.164,11.5045,89.2843)"><stop offset="0%" style="stop-color:rgb(31,187,78);stop-opacity:1"/><stop offset="100%" style="stop-color:rgb(235,235,235);stop-opacity:0"/></linearGradient>
        <linearGradient id="_Linear3" x1="0" y1="0" x2="1" y2="0" gradientUnits="userSpaceOnUse" gradientTransform="matrix(362.041,0,0,102.164,11.5045,89.2843)"><stop offset="0%" style="stop-color:rgb(187,150,31);stop-opacity:1"/><stop offset="100%" style="stop-color:rgb(235,235,235);stop-opacity:0"/></linearGradient>
    </defs>
</svg>
