<?xml version="1.0" standalone="no"?><!DOCTYPE svg PUBLIC "-//W3C//DTD SVG 1.1//EN" "http://www.w3.org/Graphics/SVG/1.1/DTD/svg11.dtd"><svg width="100%" height="100%" viewBox="0 0 300 150" version="1.1" xmlns="http://www.w3.org/2000/svg" xmlns:xlink="http://www.w3.org/1999/xlink" xml:space="preserve" style="fill-rule:evenodd;clip-rule:evenodd;stroke-linecap:round;stroke-linejoin:round;stroke-miterlimit:1.41421;"><path d="M7.75,22.997l282.089,0" style="fill:none;stroke-width:3.5px;stroke:#7f7f7f;"/><path d="M7.75,128.97l282.089,0" style="fill:none;stroke-width:3.5px;stroke:#808080;"/><text x="11.74px" y="16.962px" style="font-family:'HelveticaNeue';font-size:12px;fill:#000;">W<tspan x="22.168px 28.612px " y="16.962px 16.962px ">eb</tspan> Server</text><text x="11.74px" y="143.583px" style="font-family:'HelveticaNeue';font-size:12px;fill:#000;">Cer<tspan x="31.06px 37.732px " y="143.583px 143.583px ">nV</tspan>M</text><path d="M20.565,124.97l13.657,-97.973" style="fill:none;stroke-width:1.5px;stroke:#1bbb4e;"/><g transform="matrix(1,0,0,1,-128.23,0)"><g transform="matrix(0.138056,-0.990424,0.990424,0.138056,38.6434,228.19)"><text x="150.424px" y="91.893px" style="font-family:'Courier';font-size:12px;fill:#000;">S</text></g><g transform="matrix(0.138056,-0.990424,0.990424,0.138056,46.541,223.042)"><text x="151.415px" y="84.782px" style="font-family:'Courier';font-size:12px;fill:#000;">Y</text></g><g transform="matrix(0.138056,-0.990424,0.990424,0.138056,54.4714,217.873)"><text x="152.41px" y="77.641px" style="font-family:'Courier';font-size:12px;fill:#000;">N</text></g></g><path d="M45.622,26.997l13.656,97.973" style="fill:none;stroke-width:1.5px;stroke:#1bbb4e;"/><g transform="matrix(1,0,0,1,-103.173,97.9735)"><g transform="matrix(0.138056,0.990424,-0.990424,0.138056,81.9715,-178.715)"><text x="143.663px" y="-42.263px" style="font-family:'Courier';font-size:12px;fill:#000;">S</text></g><g transform="matrix(0.138056,0.990424,-0.990424,0.138056,89.9073,-173.543)"><text x="144.659px" y="-35.117px" style="font-family:'Courier';font-size:12px;fill:#000;">Y</text></g><g transform="matrix(0.138056,0.990424,-0.990424,0.138056,97.8051,-168.395)"><text x="145.65px" y="-28.005px" style="font-family:'Courier';font-size:12px;fill:#000;">N</text></g><g transform="matrix(0.138056,0.990424,-0.990424,0.138056,105.74,-163.223)"><text x="146.646px" y="-20.861px" style="font-family:'Courier';font-size:12px;fill:#000;">,</text></g><g transform="matrix(0.138056,0.990424,-0.990424,0.138056,113.657,-158.062)"><text x="147.64px" y="-13.732px" style="font-family:'Courier';font-size:12px;fill:#000;">A</text></g><g transform="matrix(0.138056,0.990424,-0.990424,0.138056,121.584,-152.895)"><text x="148.635px" y="-6.594px" style="font-family:'Courier';font-size:12px;fill:#000;">C</text></g><g transform="matrix(0.138056,0.990424,-0.990424,0.138056,129.497,-147.738)"><text x="149.628px" y="0.531px" style="font-family:'Courier';font-size:12px;fill:#000;">K</text></g></g><path d="M142.946,26.997l13.657,97.973" style="fill:none;stroke-width:1.5px;stroke:#2880b9;"/><g transform="matrix(1,0,0,1,-5.84858,97.9735)"><g transform="matrix(0.138056,0.990424,-0.990424,0.138056,82.842,-178.148)"><text x="143.772px" y="-41.479px" style="font-family:'Courier';font-size:12px;fill:#000;">2</text></g><g transform="matrix(0.138056,0.990424,-0.990424,0.138056,90.7466,-172.995)"><text x="144.764px" y="-34.361px" style="font-family:'Courier';font-size:12px;fill:#000;">0</text></g><g transform="matrix(0.138056,0.990424,-0.990424,0.138056,98.6864,-167.82)"><text x="145.761px" y="-27.212px" style="font-family:'Courier';font-size:12px;fill:#000;">0</text></g><g transform="matrix(0.138056,0.990424,-0.990424,0.138056,114.52,-157.499)"><text x="147.748px" y="-12.954px" style="font-family:'Courier';font-size:12px;fill:#000;">O</text></g><g transform="matrix(0.138056,0.990424,-0.990424,0.138056,122.44,-152.337)"><text x="148.742px" y="-5.823px" style="font-family:'Courier';font-size:12px;fill:#000;">K</text></g></g><path d="M193.03,26.997l13.656,97.973" style="fill:none;stroke-width:1.5px;stroke:#1bbb4e;"/><g transform="matrix(1,0,0,1,57.8917,0)"><g transform="matrix(0.138056,0.990424,-0.990424,0.138056,167.586,-80.5136)"><text x="130.05px" y="56.026px" style="font-family:'Courier';font-size:12px;fill:#000;">F</text></g><g transform="matrix(0.138056,0.990424,-0.990424,0.138056,175.506,-75.3508)"><text x="131.044px" y="63.158px" style="font-family:'Courier';font-size:12px;fill:#000;">I</text></g><g transform="matrix(0.138056,0.990424,-0.990424,0.138056,183.427,-70.188)"><text x="132.039px" y="70.29px" style="font-family:'Courier';font-size:12px;fill:#000;">N</text></g><g transform="matrix(0.138056,0.990424,-0.990424,0.138056,191.342,-65.0288)"><text x="133.032px" y="77.417px" style="font-family:'Courier';font-size:12px;fill:#000;">,</text></g><g transform="matrix(0.138056,0.990424,-0.990424,0.138056,199.253,-59.8724)"><text x="134.025px" y="84.54px" style="font-family:'Courier';font-size:12px;fill:#000;">A</text></g><g transform="matrix(0.138056,0.990424,-0.990424,0.138056,207.185,-54.7018)"><text x="135.021px" y="91.683px" style="font-family:'Courier';font-size:12px;fill:#000;">C</text></g><g transform="matrix(0.138056,0.990424,-0.990424,0.138056,215.109,-49.5373)"><text x="136.015px" y="98.818px" style="font-family:'Courier';font-size:12px;fill:#000;">K</text></g></g><path d="M217.114,124.97l13.656,-97.973" style="fill:none;stroke-width:1.5px;stroke:#1bbb4e;"/><g transform="matrix(-1,0,0,-1,379.565,151.967)"><g transform="matrix(-0.138056,0.990424,-0.990424,-0.138056,242.694,-90.6527)"><text x="160.794px" y="60.279px" style="font-family:'Courier';font-size:12px;fill:#000;">A</text></g><g transform="matrix(-0.138056,0.990424,-0.990424,-0.138056,248.621,-81.5597)"><text x="159.8px" y="67.405px" style="font-family:'Courier';font-size:12px;fill:#000;">C</text></g><g transform="matrix(-0.138056,0.990424,-0.990424,-0.138056,254.558,-72.4519)"><text x="158.806px" y="74.542px" style="font-family:'Courier';font-size:12px;fill:#000;">K</text></g></g><path d="M238.964,124.97l13.656,-97.973" style="fill:none;stroke-width:1.5px;stroke:#1bbb4e;"/><g transform="matrix(1,0,0,1,90.1688,0)"><g transform="matrix(0.138056,-0.990424,0.990424,0.138056,24.0999,237.67)"><text x="148.598px" y="104.989px" style="font-family:'Courier';font-size:12px;fill:#000;">F</text></g><g transform="matrix(0.138056,-0.990424,0.990424,0.138056,32.0124,232.512)"><text x="149.591px" y="97.864px" style="font-family:'Courier';font-size:12px;fill:#000;">I</text></g><g transform="matrix(0.138056,-0.990424,0.990424,0.138056,39.9404,227.345)"><text x="150.586px" y="90.725px" style="font-family:'Courier';font-size:12px;fill:#000;">N</text></g><g transform="matrix(0.138056,-0.990424,0.990424,0.138056,47.8557,222.186)"><text x="151.58px" y="83.598px" style="font-family:'Courier';font-size:12px;fill:#000;">,</text></g><g transform="matrix(0.138056,-0.990424,0.990424,0.138056,55.7662,217.029)"><text x="152.573px" y="76.475px" style="font-family:'Courier';font-size:12px;fill:#000;">A</text></g><g transform="matrix(0.138056,-0.990424,0.990424,0.138056,63.7047,211.855)"><text x="153.569px" y="69.327px" style="font-family:'Courier';font-size:12px;fill:#000;">C</text></g><g transform="matrix(0.138056,-0.990424,0.990424,0.138056,71.611,206.701)"><text x="154.562px" y="62.208px" style="font-family:'Courier';font-size:12px;fill:#000;">K</text></g></g><path d="M263.813,26.997l13.657,97.973" style="fill:none;stroke-width:1.5px;stroke:#1bbb4e;"/><g transform="matrix(1,0,0,1,128.675,0)"><g transform="matrix(0.138056,0.990424,-0.990424,0.138056,183.01,-70.4596)"><text x="131.986px" y="69.915px" style="font-family:'Courier';font-size:12px;fill:#000;">A</text></g><g transform="matrix(0.138056,0.990424,-0.990424,0.138056,190.925,-65.3005)"><text x="132.98px" y="77.042px" style="font-family:'Courier';font-size:12px;fill:#000;">C</text></g><g transform="matrix(0.138056,0.990424,-0.990424,0.138056,198.844,-60.1392)"><text x="133.974px" y="84.172px" style="font-family:'Courier';font-size:12px;fill:#000;">K</text></g></g><path d="M70.678,124.97l13.657,-97.973" style="fill:none;stroke-width:1.5px;stroke:#1bbb4e;"/><g transform="matrix(1,0,0,1,-78.1163,0)"><g transform="matrix(0.138056,-0.990424,0.990424,0.138056,38.6434,228.19)"><text x="150.424px" y="91.893px" style="font-family:'Courier';font-size:12px;fill:#000;">S</text></g><g transform="matrix(0.138056,-0.990424,0.990424,0.138056,46.541,223.042)"><text x="151.415px" y="84.782px" style="font-family:'Courier';font-size:12px;fill:#000;">Y</text></g><g transform="matrix(0.138056,-0.990424,0.990424,0.138056,54.4714,217.873)"><text x="152.41px" y="77.641px" style="font-family:'Courier';font-size:12px;fill:#000;">N</text></g></g><path d="M118.197,124.97l13.657,-97.973" style="fill:none;stroke-width:1.5px;stroke:#2880b9;"/><g transform="matrix(1,0,0,1,-30.5972,0)"><g transform="matrix(0.138056,-0.990424,0.990424,0.138056,17.1402,242.206)"><text x="147.725px" y="111.256px" style="font-family:'Courier';font-size:12px;fill:#000;">H</text></g><g transform="matrix(0.138056,-0.990424,0.990424,0.138056,25.0534,237.048)"><text x="148.718px" y="104.13px" style="font-family:'Courier';font-size:12px;fill:#000;">T</text></g><g transform="matrix(0.138056,-0.990424,0.990424,0.138056,32.9781,231.883)"><text x="149.713px" y="96.995px" style="font-family:'Courier';font-size:12px;fill:#000;">T</text></g><g transform="matrix(0.138056,-0.990424,0.990424,0.138056,40.9001,226.719)"><text x="150.707px" y="89.861px" style="font-family:'Courier';font-size:12px;fill:#000;">P</text></g><g transform="matrix(0.138056,-0.990424,0.990424,0.138056,56.7342,216.398)"><text x="152.694px" y="75.604px" style="font-family:'Courier';font-size:12px;fill:#000;">G</text></g><g transform="matrix(0.138056,-0.990424,0.990424,0.138056,64.6644,211.229)"><text x="153.69px" y="68.463px" style="font-family:'Courier';font-size:12px;fill:#000;">E</text></g><g transform="matrix(0.138056,-0.990424,0.990424,0.138056,72.5941,206.061)"><text x="154.685px" y="61.323px" style="font-family:'Courier';font-size:12px;fill:#000;">T</text></g></g><path d="M26.107,38.219l8.115,-11.222l4.211,12.839" style="fill:none;stroke-width:1.5px;stroke:#1bbb4e;"/><path d="M51.163,113.748l8.115,11.222l4.212,-12.84" style="fill:none;stroke-width:1.5px;stroke:#1bbb4e;"/><path d="M148.488,113.748l8.115,11.222l4.211,-12.84" style="fill:none;stroke-width:1.5px;stroke:#2880b9;"/><path d="M198.572,113.748l8.114,11.222l4.212,-12.84" style="fill:none;stroke-width:1.5px;stroke:#1bbb4e;"/><path d="M222.655,38.219l8.115,-11.222l4.211,12.839" style="fill:none;stroke-width:1.5px;stroke:#1bbb4e;"/><path d="M244.505,38.219l8.115,-11.222l4.211,12.839" style="fill:none;stroke-width:1.5px;stroke:#1bbb4e;"/><path d="M269.355,113.748l8.115,11.222l4.211,-12.84" style="fill:none;stroke-width:1.5px;stroke:#1bbb4e;"/><path d="M76.22,38.219l8.115,-11.222l4.211,12.839" style="fill:none;stroke-width:1.5px;stroke:#1bbb4e;"/><path d="M123.739,38.219l8.115,-11.222l4.211,12.839" style="fill:none;stroke-width:1.5px;stroke:#2880b9;"/></svg>