<?xml version="1.0" standalone="no"?><!DOCTYPE svg PUBLIC "-//W3C//DTD SVG 1.1//EN" "http://www.w3.org/Graphics/SVG/1.1/DTD/svg11.dtd"><svg width="100%" height="100%" viewBox="0 0 300 240" version="1.1" xmlns="http://www.w3.org/2000/svg" xmlns:xlink="http://www.w3.org/1999/xlink" xml:space="preserve" style="fill-rule:evenodd;clip-rule:evenodd;stroke-linecap:round;stroke-linejoin:round;stroke-miterlimit:1.41421;"><circle cx="160.427" cy="59.171" r="6.316" style="fill:#2880b9;"/><circle cx="160.427" cy="84.829" r="6.316" style="fill:#1bbb4e;"/><text x="53.356px" y="49.791px" style="font-family:'HelveticaNeue';font-size:12px;fill:#000;">panda</text><text x="33.356px" y="19.791px" style="font-family:'HelveticaNeue';font-size:12px;fill:#000;">r<tspan x="37.136px 44.024px " y="19.791px 19.791px ">oo</tspan>t</text><text x="179.111px" y="62.423px" style="font-family:'HelveticaNeue';font-size:12px;fill:#000;">catalog entry point</text><text x="179.111px" y="88.081px" style="font-family:'HelveticaNeue';font-size:12px;fill:#000;">or<tspan x="189.779px 196.895px " y="88.081px 88.081px ">di</tspan>nary dir<tspan x="239.567px 246.011px " y="88.081px 88.081px ">ec</tspan>tory</text><text x="53.356px" y="79.791px" style="font-family:'HelveticaNeue';font-size:12px;fill:#000;">softwar<tspan x="92.896px " y="79.791px ">e</tspan></text><text x="73.356px" y="109.791px" style="font-family:'HelveticaNeue';font-size:12px;fill:#000;">14.5.0</text><text x="73.356px" y="169.791px" style="font-family:'HelveticaNeue';font-size:12px;fill:#000;">tier3</text><text x="73.356px" y="139.791px" style="font-family:'HelveticaNeue';font-size:12px;fill:#000;">15.6.1</text><text x="73.356px" y="199.791px" style="font-family:'HelveticaNeue';font-size:12px;fill:#000;">gcc</text><path d="M14.672,22.855l0,207.676" style="fill:none;stroke-width:1px;stroke:#000;"/><path d="M34.672,82.855l0,147.676" style="fill:none;stroke-width:1px;stroke:#000;"/><path d="M28.356,46.539l-13.684,0" style="fill:none;stroke-width:1px;stroke:#000;"/><path d="M28.356,76.539l-13.684,0" style="fill:none;stroke-width:1px;stroke:#000;"/><path d="M48.356,106.539l-13.684,0" style="fill:none;stroke-width:1px;stroke:#000;"/><path d="M48.356,136.539l-13.684,0" style="fill:none;stroke-width:1px;stroke:#000;"/><path d="M48.356,166.539l-13.684,0" style="fill:none;stroke-width:1px;stroke:#000;"/><path d="M48.356,196.539l-13.684,0" style="fill:none;stroke-width:1px;stroke:#000;"/><circle cx="54.672" cy="116.452" r="1.28" style="fill:#000;"/><circle cx="54.672" cy="209.392" r="1.28" style="fill:#000;"/><circle cx="54.672" cy="121.443" r="1.28" style="fill:#000;"/><circle cx="54.672" cy="214.383" r="1.28" style="fill:#000;"/><circle cx="54.672" cy="126.434" r="1.28" style="fill:#000;"/><circle cx="54.672" cy="219.374" r="1.28" style="fill:#000;"/><path d="M131.686,6.587l0.162,0.108l0.109,0.163l0.038,0.191l0,219.691l-0.038,0.191l-0.109,0.163l-0.162,0.108l-0.191,0.038l-0.192,-0.038l-0.162,-0.108l-0.108,-0.163l-0.038,-0.191l0,-219.691l0.038,-0.191l0.108,-0.163l0.162,-0.108l0.192,-0.038l0.191,0.038Z" style="fill:#7b7b7b;"/><circle cx="14.672" cy="16.539" r="6.316" style="fill:#2880b9;"/><circle cx="54.672" cy="106.539" r="6.316" style="fill:#2880b9;"/><circle cx="54.672" cy="136.539" r="6.316" style="fill:#2880b9;"/><circle cx="54.672" cy="166.539" r="6.316" style="fill:#1bbb4e;"/><circle cx="34.672" cy="46.539" r="6.316" style="fill:#1bbb4e;"/><circle cx="54.672" cy="196.539" r="6.316" style="fill:#1bbb4e;"/><circle cx="34.672" cy="76.539" r="6.316" style="fill:#1bbb4e;"/></svg>