<?xml version="1.0" encoding="UTF-8" standalone="no"?>
<svg
   xmlns:dc="http://purl.org/dc/elements/1.1/"
   xmlns:cc="http://creativecommons.org/ns#"
   xmlns:rdf="http://www.w3.org/1999/02/22-rdf-syntax-ns#"
   xmlns:svg="http://www.w3.org/2000/svg"
   xmlns="http://www.w3.org/2000/svg"
   xmlns:sodipodi="http://sodipodi.sourceforge.net/DTD/sodipodi-0.dtd"
   xmlns:inkscape="http://www.inkscape.org/namespaces/inkscape"
   width="100%"
   height="100%"
   viewBox="0 0 650 400"
   version="1.1"
   xml:space="preserve"
   style="fill-rule:evenodd;clip-rule:evenodd;stroke-linecap:round;stroke-linejoin:round;stroke-miterlimit:1.41421;"
   id="svg39"
   sodipodi:docname="overlay.svg"
   inkscape:version="0.92.2 (5c3e80d, 2017-08-06)"><metadata
     id="metadata43"><rdf:RDF><cc:Work
         rdf:about=""><dc:format>image/svg+xml</dc:format><dc:type
           rdf:resource="http://purl.org/dc/dcmitype/StillImage" /></cc:Work></rdf:RDF></metadata><sodipodi:namedview
     pagecolor="#ffffff"
     bordercolor="#666666"
     borderopacity="1"
     objecttolerance="10"
     gridtolerance="10"
     guidetolerance="10"
     inkscape:pageopacity="0"
     inkscape:pageshadow="2"
     inkscape:window-width="2560"
     inkscape:window-height="1341"
     id="namedview41"
     showgrid="false"
     inkscape:zoom="3.84"
     inkscape:cx="326.99634"
     inkscape:cy="158.69731"
     inkscape:window-x="0"
     inkscape:window-y="28"
     inkscape:window-maximized="1"
     inkscape:current-layer="svg39" /><path
     d="M25.911,190.565l407.366,0l190.812,-114.479l-389.035,0l-209.143,114.479Z"
     style="fill:#227fbb;"
     id="path2" /><path
     d="M25.911,138.459l407.366,0l190.812,-114.479l-389.035,0l-209.143,114.479Z"
     style="fill:#0dae41;fill-opacity:0.901961;"
     id="path4" /><text
     x="121.922px"
     y="175.023px"
     style="font-family:'ArialMT';font-size:22.694px;fill:#fff;"
     id="text6">CernVM-FS Read-Only</text>
<text
     x="184.834"
     y="119.646"
     style="font-size:22.69400024px;font-family:ArialMT;fill:#ffffff"
     id="text12">Read/Write Scratch Area</text>
<path
     d="M486.72,185.795c0.061,2.692 2.175,4.77 4.771,4.77l15.101,0l0,9.673l-19.872,0c-5.338,0 -9.672,-4.335 -9.672,-9.673l0,-26.261l9.672,-5.803l0,27.294Z"
     style="fill:#000;"
     id="path14" /><path
     d="M476.946,329.854l20.039,0c2.692,-0.06 4.77,-2.175 4.77,-4.77l0,-227.709l9.673,-5.803l0,238.282c0,5.338 -4.334,9.673 -9.673,9.673l-24.809,0l0,6.791l-22.635,-11.723l22.635,-11.723l0,6.982Z"
     style="fill:#000;"
     id="path16" /><path
     d="M444.105,313.414c0,-11.518 -9.351,-20.868 -20.869,-20.868l-345.227,0c-11.517,0 -20.868,9.35 -20.868,20.868l0,41.737c0,11.518 9.351,20.869 20.868,20.869l345.227,0c11.518,0 20.869,-9.351 20.869,-20.869l0,-41.737Z"
     style="fill:#fff;stroke-width:3px;stroke:#000;"
     id="path18" /><text
     x="119.753"
     y="340.66699"
     style="font-size:20px;font-family:ArialMT;fill:#000000"
     id="text22">Read/Write Interface</text>
<g
     id="Layer 1"><path
       id="rect1061"
       d="M338.921,311.228c-1.242,0.296 -2.005,1.534 -1.71,2.776l10.284,45.363c0.295,1.242 1.53,2.006 2.772,1.711l57.927,-13.763c1.242,-0.295 2.005,-1.534 1.71,-2.776l-7.233,-35.194c-0.295,-1.242 -1.534,-1.909 -2.776,-1.71l-33.788,5.026c0,0 -3.141,-5.557 -4.383,-5.262l-22.803,3.829Z"
       style="fill:url(#_Linear1);fill-rule:nonzero;stroke-width:0.83px;stroke-linecap:butt;stroke-linejoin:miter;stroke:#446c98;" /><path
       id="rect1063"
       d="M413.158,315.633l-56.924,9.427c-1.243,0.295 -2.302,1.328 -2.436,2.527l-6.236,31.899c0.263,1.105 1.474,1.926 2.716,1.631l57.925,-13.763c1.242,-0.295 1.647,-1.35 1.901,-2.442l5.77,-27.817c0.077,-2.023 -1.57,-1.565 -2.716,-1.462Z"
       style="fill:url(#_Linear2);fill-rule:nonzero;stroke-width:0.83px;stroke-linecap:butt;stroke-linejoin:miter;stroke:#446c98;stroke-opacity:0.824903;" /></g><defs
     id="defs37"><linearGradient
       id="_Linear1"
       x1="0"
       y1="0"
       x2="1"
       y2="0"
       gradientUnits="userSpaceOnUse"
       gradientTransform="matrix(-46.5564,-45.3028,45.3028,-46.5564,381.009,354.574)"><stop
         offset="0%"
         style="stop-color:#017eff;stop-opacity:1"
         id="stop27" /><stop
         offset="100%"
         style="stop-color:#ecfaff;stop-opacity:1"
         id="stop29" /></linearGradient><linearGradient
       id="_Linear2"
       x1="0"
       y1="0"
       x2="1"
       y2="0"
       gradientUnits="userSpaceOnUse"
       gradientTransform="matrix(-31.9891,-23.7638,23.7638,-31.9891,387.536,354.729)"><stop
         offset="0%"
         style="stop-color:#017eff;stop-opacity:0.824903"
         id="stop32" /><stop
         offset="100%"
         style="stop-color:#ecfaff;stop-opacity:0.824903"
         id="stop34" /></linearGradient></defs></svg>