<?xml version="1.0" encoding="UTF-8" standalone="no"?>
<svg
   xmlns:dc="http://purl.org/dc/elements/1.1/"
   xmlns:cc="http://creativecommons.org/ns#"
   xmlns:rdf="http://www.w3.org/1999/02/22-rdf-syntax-ns#"
   xmlns:svg="http://www.w3.org/2000/svg"
   xmlns="http://www.w3.org/2000/svg"
   xmlns:sodipodi="http://sodipodi.sourceforge.net/DTD/sodipodi-0.dtd"
   xmlns:inkscape="http://www.inkscape.org/namespaces/inkscape"
   width="100%"
   height="100%"
   viewBox="0 0 600 480"
   version="1.1"
   xml:space="preserve"
   style="fill-rule:evenodd;clip-rule:evenodd;stroke-linecap:round;stroke-linejoin:round;stroke-miterlimit:1.41421;"
   id="svg328"
   sodipodi:docname="reposignature.svg"
   inkscape:version="0.92.2 (5c3e80d, 2017-08-06)"><metadata
     id="metadata332"><rdf:RDF><cc:Work
         rdf:about=""><dc:format>image/svg+xml</dc:format><dc:type
           rdf:resource="http://purl.org/dc/dcmitype/StillImage" /></cc:Work></rdf:RDF></metadata><sodipodi:namedview
     pagecolor="#ffffff"
     bordercolor="#666666"
     borderopacity="1"
     objecttolerance="10"
     gridtolerance="10"
     guidetolerance="10"
     inkscape:pageopacity="0"
     inkscape:pageshadow="2"
     inkscape:window-width="2560"
     inkscape:window-height="1341"
     id="namedview330"
     showgrid="false"
     inkscape:zoom="2.7812867"
     inkscape:cx="274.06846"
     inkscape:cy="265.77138"
     inkscape:window-x="0"
     inkscape:window-y="28"
     inkscape:window-maximized="1"
     inkscape:current-layer="svg328" /><path
     d="m 596.54269,60.15339 c 0,-7.071 -5.74,-12.812 -12.811,-12.812 h -176.434 c -7.071,0 -12.812,5.741 -12.812,12.812 v 63.03 c 0,7.071 5.741,12.811 12.812,12.811 h 176.434 c 7.071,0 12.811,-5.74 12.811,-12.811 z"
     style="fill:#ffffff;stroke:#000000;stroke-width:2px"
     id="path2"
     inkscape:connector-curvature="0" /><path
     d="m 596.54269,212.56968 c 0,-6.122 -4.97,-11.092 -11.092,-11.092 h -179.873 c -6.122,0 -11.092,4.97 -11.092,11.092 v 54.57 c 0,6.122 4.97,11.092 11.092,11.092 h 179.873 c 6.122,0 11.092,-4.97 11.092,-11.092 z"
     style="fill:#ffffff;stroke:#000000;stroke-width:2px"
     id="path4"
     inkscape:connector-curvature="0" /><path
     d="M237.246,17.445c0,-6.529 -5.3,-11.829 -11.828,-11.829l-204.248,0c-6.528,0 -11.828,5.3 -11.828,11.829l0,444.772c0,6.529 5.3,11.829 11.828,11.829l204.248,0c6.528,0 11.828,-5.3 11.828,-11.829l0,-444.772Z"
     style="fill:#fff;stroke-width:2px;stroke:#000;"
     id="path6" /><path
     d="M201.078,181.64c0,-4.079 -3.312,-7.391 -7.391,-7.391l-142.666,0c-4.08,0 -7.391,3.312 -7.391,7.391l0,57.055c0,4.079 3.311,7.391 7.391,7.391l142.666,0c4.079,0 7.391,-3.312 7.391,-7.391l0,-57.055Z"
     style="fill:#2880b9;"
     id="path8" /><path
     d="M201.078,48.319c0,-4.896 -3.975,-8.87 -8.87,-8.87l-159.709,0c-4.895,0 -8.869,3.974 -8.869,8.87l0,30.656c0,4.895 3.974,8.87 8.869,8.87l159.709,0c4.895,0 8.87,-3.975 8.87,-8.87l0,-30.656Z"
     style="fill:#0dbb4e;"
     id="path10" /><path
     d="M201.078,367.519c0,-3.127 -2.539,-5.666 -5.666,-5.666l-166.116,0c-3.128,0 -5.666,2.539 -5.666,5.666l0,19.582c0,3.128 2.538,5.666 5.666,5.666l166.116,0c3.127,0 5.666,-2.538 5.666,-5.666l0,-19.582Z"
     style="fill:#6fb4d0;"
     id="path12" /><path
     d="M201.078,401.519c0,-3.127 -2.539,-5.666 -5.666,-5.666l-166.116,0c-3.128,0 -5.666,2.539 -5.666,5.666l0,19.582c0,3.128 2.538,5.666 5.666,5.666l166.116,0c3.127,0 5.666,-2.538 5.666,-5.666l0,-19.582Z"
     style="fill:#6fb4d0;"
     id="path14" /><path
     d="M201.078,435.519c0,-3.127 -2.539,-5.666 -5.666,-5.666l-166.116,0c-3.128,0 -5.666,2.539 -5.666,5.666l0,19.582c0,3.128 2.538,5.666 5.666,5.666l166.116,0c3.127,0 5.666,-2.538 5.666,-5.666l0,-19.582Z"
     style="fill:#6fb4d0;"
     id="path16" /><path
     d="M201.078,138.974c0,-3.379 -2.743,-6.121 -6.121,-6.121l-165.207,0c-3.378,0 -6.12,2.742 -6.12,6.121l0,21.154c0,3.379 2.742,6.121 6.12,6.121l165.207,0c3.378,0 6.121,-2.742 6.121,-6.121l0,-21.154Z"
     style="fill:#bb701e;"
     id="path18" /><path
     d="M29.896,186.902l0,166.894"
     style="fill:none;stroke-width:1px;stroke:#000;"
     id="path20" /><path
     d="M43.58,260.538l-13.684,0"
     style="fill:none;stroke-width:1px;stroke:#000;"
     id="path22" /><path
     d="M43.58,313.538l-13.684,0"
     style="fill:none;stroke-width:1px;stroke:#000;"
     id="path24" /><circle
     cx="29.896"
     cy="180.586"
     r="6.316"
     style="fill:#2880b9;"
     id="circle26" /><circle
     cx="49.896"
     cy="260.565"
     r="6.316"
     style="fill:#2880b9;"
     id="circle28" /><circle
     cx="49.896"
     cy="313.538"
     r="6.316"
     style="fill:#2880b9;"
     id="circle30" /><g
     transform="matrix(1,0,0,1,-34.6361,141.82)"
     id="g60"><text
       x="85.976997"
       y="46.737"
       style="font-size:12px;font-family:HelveticaNeue-Bold;fill:#ffffff"
       id="text34">r<tspan
   x="90.429001 97.761002"
   y="46.737 46.737"
   id="tspan32">oo</tspan>t-catalog:</text>
<text
       x="163.521px"
       y="46.737px"
       style="font-family:'Courier';font-size:12px;fill:#fff;"
       id="text38">af34bc...</text>
<text
       x="92.649px"
       y="59.073px"
       style="font-family:'HelveticaNeue';font-size:12px;fill:#fff;"
       id="text40">sub-catalog:</text>
<text
       x="165.48627"
       y="59.432549"
       style="font-size:12px;font-family:Courier;fill:#ffffff"
       id="text42">3730e1...</text>
<text
       x="92.649px"
       y="71.409px"
       style="font-family:'HelveticaNeue';font-size:12px;fill:#fff;"
       id="text44">sub-catalog:</text>
<text
       x="165.3065"
       y="71.768539"
       style="font-size:12px;font-family:Courier;fill:#ffffff"
       id="text46">82efa1...</text>
<text
       x="92.649px"
       y="83.745px"
       style="font-family:'HelveticaNeue';font-size:12px;fill:#6fb9c7;"
       id="text48">ﬁle:</text>
<text
       x="114.645px"
       y="83.745px"
       style="font-family:'Courier';font-size:12px;fill:#6fb9c7;"
       id="text50">81ee9</text>
<text
       x="150.651px"
       y="83.745px"
       style="font-family:'Courier';font-size:12px;fill:#6fb9c7;"
       id="text52">1</text>
<text
       x="157.732px"
       y="83.745px"
       style="font-family:'Courier';font-size:12px;fill:#6fb9c7;"
       id="text54">...</text>
<text
       x="92.649px"
       y="96.081px"
       style="font-family:'HelveticaNeue';font-size:12px;fill:#6fb9c7;"
       id="text56">ﬁle:</text>
<text
       x="114.645px"
       y="96.081px"
       style="font-family:'Courier';font-size:12px;fill:#6fb9c7;"
       id="text58">972c1a...</text>
</g><path
     d="M221.078,259.045c0,-2.662 -2.161,-4.823 -4.823,-4.823l-147.802,0c-2.662,0 -4.823,2.161 -4.823,4.823l0,37.23c0,2.662 2.161,4.823 4.823,4.823l147.802,0c2.662,0 4.823,-2.161 4.823,-4.823l0,-37.23Z"
     style="fill:#2880b9;"
     id="path62" /><path
     d="M221.078,312.014c0,-2.645 -2.147,-4.792 -4.792,-4.792l-147.865,0c-2.644,0 -4.791,2.147 -4.791,4.792l0,36.99c0,2.644 2.147,4.792 4.791,4.792l147.865,0c2.645,0 4.792,-2.148 4.792,-4.792l0,-36.99Z"
     style="fill:#2880b9;"
     id="path64" /><g
     transform="matrix(1,0,0,1,-14.6361,221.793)"
     id="g80"><text
       x="85.976997"
       y="46.737"
       style="font-size:12px;font-family:HelveticaNeue-Bold;fill:#ffffff"
       id="text66">sub-catalog:</text>
<text
       x="154.401"
       y="46.737"
       style="font-size:12px;font-family:HelveticaNeue;fill:#ffffff"
       id="text68" />
<text
       x="161.073px"
       y="46.737px"
       style="font-family:'Courier';font-size:12px;fill:#fff;"
       id="text70">3730e1...</text>
<text
       x="92.649px"
       y="59.073px"
       style="font-family:'HelveticaNeue';font-size:12px;fill:#6fb9c7;"
       id="text72">ﬁle:</text>
<text
       x="114.645px"
       y="59.073px"
       style="font-family:'Courier';font-size:12px;fill:#6fb9c7;"
       id="text74">01f3ac...</text>
<text
       x="92.649px"
       y="71.409px"
       style="font-family:'HelveticaNeue';font-size:12px;fill:#6fb9c7;"
       id="text76">ﬁle:</text>
<text
       x="114.645px"
       y="71.409px"
       style="font-family:'Courier';font-size:12px;fill:#6fb9c7;"
       id="text78">6a8cc2...</text>
</g><g
     transform="matrix(1,0,0,1,-14.6361,274.793)"
     id="g96"><text
       x="85.976997"
       y="46.737"
       style="font-size:12px;font-family:HelveticaNeue-Bold;fill:#ffffff"
       id="text82">sub-catalog:</text>
<text
       x="154.401"
       y="46.737"
       style="font-size:12px;font-family:HelveticaNeue;fill:#ffffff"
       id="text84" />
<text
       x="161.073px"
       y="46.737px"
       style="font-family:'Courier';font-size:12px;fill:#fff;"
       id="text86">82efa1...</text>
<text
       x="92.649px"
       y="59.073px"
       style="font-family:'HelveticaNeue';font-size:12px;fill:#6fb9c7;"
       id="text88">ﬁle:</text>
<text
       x="114.645px"
       y="59.073px"
       style="font-family:'Courier';font-size:12px;fill:#6fb9c7;"
       id="text90">c0e331...</text>
<text
       x="92.649px"
       y="71.409px"
       style="font-family:'HelveticaNeue';font-size:12px;fill:#6fb9c7;"
       id="text92">ﬁle:</text>
<text
       x="114.645px"
       y="71.409px"
       style="font-family:'Courier';font-size:12px;fill:#6fb9c7;"
       id="text94">fe3411...</text>
</g><g
     transform="matrix(1,0,0,1,2.52962,-43.5508)"
     id="g112"><text
       x="27.239"
       y="98.275002"
       style="font-size:12px;font-family:HelveticaNeue-Bold;fill:#ffffff"
       id="text98">.cvmfspublished (Manifest)</text>
<text
       x="124.103"
       y="98.275002"
       style="font-size:12px;font-family:HelveticaNeue;fill:#ffffff"
       id="text100" />
<text
       x="33.911px"
       y="110.611px"
       style="font-family:'HelveticaNeue';font-size:12px;fill:#fff;"
       id="text104">r<tspan
   x="37.691px 44.579px "
   y="110.611px 110.611px "
   id="tspan102">oo</tspan>t-catalog:</text>
<text
       x="109.19514"
       y="110.611"
       style="font-size:12px;font-family:Courier;fill:#ffffff"
       id="text106">af34bc...</text>
<text
       x="33.911px"
       y="122.947px"
       style="font-family:'HelveticaNeue';font-size:12px;fill:#fff;"
       id="text108">certiﬁcate:</text>
<text
       x="98.542297"
       y="122.85711"
       style="font-size:12px;font-family:Courier;fill:#ffffff"
       id="text110">ce11fc...</text>
</g><g
     transform="matrix(1,0,0,1,1.96562,277.235)"
     id="g122"><text
       x="27.239px"
       y="98.275px"
       style="font-family:'HelveticaNeue-Bold';font-size:12px;fill:#fff;"
       id="text114">ﬁle</text>
<text
       x="44.555px"
       y="98.275px"
       style="font-family:'HelveticaNeue';font-size:12px;fill:#fff;"
       id="text116">:</text>
<text
       x="51.227px"
       y="98.275px"
       style="font-family:'Courier';font-size:12px;fill:#fff;"
       id="text118">81ee91...</text>
<text
       x="27.239px"
       y="108.275px"
       style="font-family:'Courier';font-size:10px;fill:#fff;"
       id="text120">Lorem ipsum dolor sit amet</text>
</g><g
     transform="matrix(1,0,0,1,1.96562,311.235)"
     id="g132"><text
       x="27.239px"
       y="98.275px"
       style="font-family:'HelveticaNeue-Bold';font-size:12px;fill:#fff;"
       id="text124">ﬁle</text>
<text
       x="44.555px"
       y="98.275px"
       style="font-family:'HelveticaNeue';font-size:12px;fill:#fff;"
       id="text126">:</text>
<text
       x="51.227px"
       y="98.275px"
       style="font-family:'Courier';font-size:12px;fill:#fff;"
       id="text128">972c1a...</text>
<text
       x="27.239px"
       y="108.275px"
       style="font-family:'Courier';font-size:10px;fill:#fff;"
       id="text130">consectetur adipiscing elit</text>
</g><g
     transform="matrix(1,0,0,1,1.96562,345.235)"
     id="g144"><text
       x="27.239px"
       y="98.275px"
       style="font-family:'HelveticaNeue-Bold';font-size:12px;fill:#fff;"
       id="text134">ﬁle</text>
<text
       x="44.555px"
       y="98.275px"
       style="font-family:'HelveticaNeue';font-size:12px;fill:#fff;"
       id="text136">:</text>
<text
       x="51.227px"
       y="98.275px"
       style="font-family:'Courier';font-size:12px;fill:#fff;"
       id="text138">.</text>
<text
       x="58.668px"
       y="98.275px"
       style="font-family:'Courier';font-size:12px;fill:#fff;"
       id="text140">..</text>
<text
       x="27.239px"
       y="108.275px"
       style="font-family:'Courier';font-size:10px;fill:#fff;"
       id="text142">...</text>
</g><g
     transform="matrix(1,0,0,1,1.96562,48.2347)"
     id="g154"><text
       x="27.239"
       y="98.275002"
       style="font-size:12px;font-family:HelveticaNeue-Bold;fill:#ffffff"
       id="text146">.cvmfswhitelist</text>
<text
       x="33.911px"
       y="110.611px"
       style="font-family:'HelveticaNeue';font-size:12px;fill:#fff;"
       id="text150">certiﬁcate:</text>
<text
       x="98.51442"
       y="110.611"
       style="font-size:12px;font-family:Courier;fill:#ffffff"
       id="text152">ce11fc...</text>
</g><g
     id="g166"><path
       d="M408.626,74.485l-4.898,0c-1.351,0 -2.449,-1.097 -2.449,-2.449l0,-9.047c0,-1.351 1.098,-2.449 2.449,-2.449l4.898,0c1.352,0 2.449,1.098 2.449,2.449l0,2.354l8.191,0l1.98,1.139l-1.34,3.112l-0.403,0l-1.067,-0.91l-1.105,0.91l-1.384,-1.473l-0.869,1.473l-4.003,0l0,2.442c0,1.352 -1.097,2.449 -2.449,2.449ZM403.861,63.553l-0.656,0c-0.182,0 -0.329,0.147 -0.329,0.328l0,7.263c0,0.182 0.147,0.329 0.329,0.329l0.656,0c0.181,0 0.329,-0.147 0.329,-0.329l0,-7.263c0,-0.181 -0.147,-0.328 -0.329,-0.328Z"
       style="fill:#fccb00;stroke-width:1px;stroke:#000;"
       id="path160" /><path
       d="M411.578,65.939l7.521,0c0.174,0 0.315,0.226 0.315,0.505c0,0.278 -0.141,0.504 -0.315,0.504l0,0.001l-7.521,0l0,-0.001c-0.174,0 -0.315,-0.226 -0.315,-0.504c0,-0.279 0.141,-0.505 0.315,-0.505Z"
       style="fill:url(#_Linear1);"
       id="path162" /><path
       d="M408.873,64.014c0,-0.303 -0.246,-0.548 -0.549,-0.548l-1.097,0c-0.303,0 -0.548,0.245 -0.548,0.548l0,6.997c0,0.303 0.245,0.549 0.548,0.549l1.097,0c0.303,0 0.549,-0.246 0.549,-0.549l0,-6.997Z"
       style="fill:#ffdc4a;"
       id="path164" /></g><g
     id="g174"><path
       d="M408.626,228.485l-4.898,0c-1.351,0 -2.449,-1.097 -2.449,-2.449l0,-9.047c0,-1.351 1.098,-2.449 2.449,-2.449l4.898,0c1.352,0 2.449,1.098 2.449,2.449l0,2.354l8.191,0l1.98,1.139l-1.34,3.112l-0.403,0l-1.067,-0.91l-1.105,0.91l-1.384,-1.473l-0.869,1.473l-4.003,0l0,2.442c0,1.352 -1.097,2.449 -2.449,2.449ZM403.861,217.553l-0.656,0c-0.182,0 -0.329,0.147 -0.329,0.328l0,7.263c0,0.182 0.147,0.329 0.329,0.329l0.656,0c0.181,0 0.329,-0.147 0.329,-0.329l0,-7.263c0,-0.181 -0.147,-0.328 -0.329,-0.328Z"
       style="fill:#fccb00;stroke-width:1px;stroke:#000;"
       id="path168" /><path
       d="M411.578,219.939l7.521,0c0.174,0 0.315,0.226 0.315,0.505c0,0.278 -0.141,0.504 -0.315,0.504l0,0.001l-7.521,0l0,-0.001c-0.174,0 -0.315,-0.226 -0.315,-0.504c0,-0.279 0.141,-0.505 0.315,-0.505Z"
       style="fill:url(#_Linear2);"
       id="path170" /><path
       d="M408.873,218.014c0,-0.303 -0.246,-0.548 -0.549,-0.548l-1.097,0c-0.303,0 -0.548,0.245 -0.548,0.548l0,6.997c0,0.303 0.245,0.549 0.548,0.549l1.097,0c0.303,0 0.549,-0.246 0.549,-0.549l0,-6.997Z"
       style="fill:#ffdc4a;"
       id="path172" /></g><g
     id="g182"><path
       d="M408.626,94.232l-4.898,0c-1.351,0 -2.449,-1.097 -2.449,-2.449l0,-9.047c0,-1.352 1.098,-2.449 2.449,-2.449l4.898,0c1.352,0 2.449,1.097 2.449,2.449l0,2.354l8.191,0l1.98,1.139l-1.34,3.112l-0.403,0l-1.067,-0.91l-1.105,0.91l-1.384,-1.473l-0.869,1.473l-4.003,0l0,2.442c0,1.352 -1.097,2.449 -2.449,2.449ZM403.861,83.299l-0.656,0c-0.182,0.001 -0.329,0.148 -0.329,0.329l0,7.263c0,0.182 0.147,0.329 0.329,0.329l0.656,0c0.181,0 0.329,-0.147 0.329,-0.329l0,-7.263c0,-0.181 -0.147,-0.328 -0.329,-0.329Z"
       style="fill:#fccb00;stroke-width:1px;stroke:#000;"
       id="path176" /><path
       d="M411.578,85.686l7.521,0c0.174,0 0.315,0.226 0.315,0.504c0,0.279 -0.141,0.505 -0.315,0.505l0,0l-7.521,0l0,0c-0.174,0 -0.315,-0.226 -0.315,-0.505c0,-0.278 0.141,-0.504 0.315,-0.504Z"
       style="fill:url(#_Linear3);"
       id="path178" /><path
       d="M408.873,83.761c0,-0.303 -0.246,-0.549 -0.549,-0.549l-1.097,0c-0.303,0 -0.548,0.246 -0.548,0.549l0,6.997c0,0.303 0.245,0.549 0.548,0.549l1.097,0c0.303,0 0.549,-0.246 0.549,-0.549l0,-6.997Z"
       style="fill:#ffdc4a;"
       id="path180" /></g><g
     id="g190"><path
       d="M408.626,248.232l-4.898,0c-1.351,0 -2.449,-1.097 -2.449,-2.449l0,-9.047c0,-1.352 1.098,-2.449 2.449,-2.449l4.898,0c1.352,0 2.449,1.097 2.449,2.449l0,2.354l8.191,0l1.98,1.139l-1.34,3.112l-0.403,0l-1.067,-0.91l-1.105,0.91l-1.384,-1.473l-0.869,1.473l-4.003,0l0,2.442c0,1.352 -1.097,2.449 -2.449,2.449ZM403.861,237.299l-0.656,0c-0.182,0.001 -0.329,0.148 -0.329,0.329l0,7.263c0,0.182 0.147,0.329 0.329,0.329l0.656,0c0.181,0 0.329,-0.147 0.329,-0.329l0,-7.263c0,-0.181 -0.147,-0.328 -0.329,-0.329Z"
       style="fill:#fccb00;stroke-width:1px;stroke:#000;"
       id="path184" /><path
       d="M411.578,239.686l7.521,0c0.174,0 0.315,0.226 0.315,0.504c0,0.279 -0.141,0.505 -0.315,0.505l0,0l-7.521,0l0,0c-0.174,0 -0.315,-0.226 -0.315,-0.505c0,-0.278 0.141,-0.504 0.315,-0.504Z"
       style="fill:url(#_Linear4);"
       id="path186" /><path
       d="M408.873,237.761c0,-0.303 -0.246,-0.549 -0.549,-0.549l-1.097,0c-0.303,0 -0.548,0.246 -0.548,0.549l0,6.997c0,0.303 0.245,0.549 0.548,0.549l1.097,0c0.303,0 0.549,-0.246 0.549,-0.549l0,-6.997Z"
       style="fill:#ffdc4a;"
       id="path188" /></g><text
     x="430.337px"
     y="72.001px"
     style="font-family:'HelveticaNeue';font-size:12px;fill:#000;"
     id="text192">Repository Private Key</text>
<text
     x="430.337px"
     y="226.001px"
     style="font-family:'HelveticaNeue';font-size:12px;fill:#000;"
     id="text194">Master Private Key</text>
<g
     transform="matrix(1,0,0,1,86.4531,31.9558)"
     id="g204"><text
       x="343.884"
       y="58.780998"
       style="font-size:12px;font-family:HelveticaNeue;fill:#000000"
       id="text196">Repository Certificate</text>
<text
       x="396"
       y="58.780998"
       style="font-size:12px;font-family:HelveticaNeue;fill:#000000"
       id="text200" />
<text
       x="343.884px"
       y="70.781px"
       style="font-family:'Courier';font-size:12px;fill:#000;"
       id="text202">(ce11fc...)</text>
</g><text
     x="430.337px"
     y="244.737px"
     style="font-family:'HelveticaNeue';font-size:12px;fill:#000;"
     id="text206">Public Key</text>
<g
     id="g216"><path
       d="M206.387,144.285c0,-2.93 -2.379,-5.309 -5.309,-5.309c-2.93,0 -5.309,2.379 -5.309,5.309l0,3.101l-2.122,0l0,-3.101c0,-4.101 3.33,-7.431 7.431,-7.431c4.101,0 7.431,3.329 7.431,7.431l0,3.101l-2.122,0l0,-3.101Z"
       style="fill:#000;"
       id="path208" /><path
       d="M211.143,148.821c0,-0.792 -0.643,-1.435 -1.435,-1.435l-17.26,0c-0.792,0 -1.435,0.643 -1.435,1.435l0,11.992c0,0.792 0.643,1.435 1.435,1.435l17.26,0c0.792,0 1.435,-0.643 1.435,-1.435l0,-11.992Z"
       style="fill:#fccb00;stroke-width:1px;stroke:#000;"
       id="path210" /><rect
       x="193.01"
       y="149.537"
       width="16.136"
       height="1.881"
       style="fill:#955c00;"
       id="rect212" /><path
       d="M200.111,155.611c-0.352,-0.283 -0.577,-0.717 -0.577,-1.203c0,-0.852 0.692,-1.544 1.544,-1.544c0.852,0 1.544,0.692 1.544,1.544c0,0.486 -0.226,0.92 -0.577,1.203l0.577,3.55l-3.088,0l0.577,-3.55Z"
       style="fill:#000;"
       id="path214" /></g><path
     d="M201.078,99.974c0,-3.379 -2.743,-6.121 -6.121,-6.121l-165.207,0c-3.378,0 -6.12,2.742 -6.12,6.121l0,21.154c0,3.379 2.742,6.121 6.12,6.121l165.207,0c3.378,0 6.121,-2.742 6.121,-6.121l0,-21.154Z"
     style="fill:#bb981e;"
     id="path218" /><g
     transform="matrix(1,0,0,1,1.96562,10.2347)"
     id="g228"><text
       x="27.239"
       y="98.275002"
       style="font-size:12px;font-family:HelveticaNeue-Bold;fill:#ffffff"
       id="text220">certiﬁcate:</text>
<text
       x="91.895px"
       y="98.275px"
       style="font-family:'Courier';font-size:12px;fill:#fff;"
       id="text224">ce11fc...</text>
<text
       x="27.239px"
       y="108.275px"
       style="font-family:'Courier';font-size:10px;fill:#fff;"
       id="text226">-----BEGIN PUBLIC KEY-----</text>
</g><g
     id="g238"><path
       d="M206.387,58.381c0,-2.931 -2.379,-5.31 -5.309,-5.31c-2.93,0 -5.309,2.379 -5.309,5.31l0,3.101l-2.122,0l0,-3.101c0,-4.102 3.33,-7.431 7.431,-7.431c4.101,0 7.431,3.329 7.431,7.431l0,3.101l-2.122,0l0,-3.101Z"
       style="fill:#000;"
       id="path230" /><path
       d="M211.143,62.917c0,-0.792 -0.643,-1.435 -1.435,-1.435l-17.26,0c-0.792,0 -1.435,0.643 -1.435,1.435l0,11.992c0,0.792 0.643,1.435 1.435,1.435l17.26,0c0.792,0 1.435,-0.643 1.435,-1.435l0,-11.992Z"
       style="fill:#fccb00;stroke-width:1px;stroke:#000;"
       id="path232" /><rect
       x="193.01"
       y="63.632"
       width="16.136"
       height="1.881"
       style="fill:#955c00;"
       id="rect234" /><path
       d="M200.111,69.707c-0.352,-0.283 -0.577,-0.717 -0.577,-1.203c0,-0.852 0.692,-1.544 1.544,-1.544c0.852,0 1.544,0.692 1.544,1.544c0,0.486 -0.226,0.92 -0.577,1.203l0.577,3.55l-3.088,0l0.577,-3.55Z"
       style="fill:#000;"
       id="path236" /></g><path
     d="M393.967,67.863l-174.792,0"
     style="fill:none;stroke-width:3px;stroke:#000;"
     id="path240" /><path
     d="M393.967,240.831c-70.568,-0.902 -82.508,2.751 -82.853,61.833c0,0 0.179,28.357 0,47.106"
     style="fill:none;stroke-width:3px;stroke:#000;"
     id="path242" /><path
     d="M393.967,91.863c-18.87,19.852 -21.769,19.284 -174.792,18"
     style="fill:none;stroke-width:3px;stroke:#000;"
     id="path244" /><path
     d="M393.967,91.863c-63.981,64.27 -24.92,62 -174.792,62"
     style="fill:none;stroke-width:3px;stroke:#000;"
     id="path246" /><path
     d="M393.967,216.207c-63.981,-64.27 -24.92,-62.344 -174.792,-62.344"
     style="fill:none;stroke-width:3px;stroke:#000;"
     id="path248" /><path
     d="M231.053,61.26l-11.878,6.603l11.808,6.603"
     style="fill:none;stroke-width:3px;stroke:#000;"
     id="path250" /><path
     d="M304.512,337.892l6.602,11.878l6.603,-11.807"
     style="fill:none;stroke-width:3px;stroke:#000;"
     id="path252" /><path
     d="M231.053,103.26l-11.878,6.603l11.808,6.603"
     style="fill:none;stroke-width:3px;stroke:#000;"
     id="path254" /><path
     d="M231.053,147.26l-11.878,6.603l11.808,6.603"
     style="fill:none;stroke-width:3px;stroke:#000;"
     id="path256" /><text
     x="254.648px"
     y="61.562px"
     style="font-family:'HelveticaNeue';font-size:16px;fill:#000;"
     id="text258">sign</text>
<text
     x="254.648px"
     y="103.097px"
     style="font-family:'HelveticaNeue';font-size:16px;fill:#000;"
     id="text260">upload</text>
<text
     x="253.672px"
     y="146.799px"
     style="font-family:'HelveticaNeue';font-size:16px;fill:#000;"
     id="text264">r<tspan
   x="258.712px 267.304px "
   y="146.799px 146.799px "
   id="tspan262">eg</tspan>ister</text>
<text
     x="253.672px"
     y="170.799px"
     style="font-family:'HelveticaNeue';font-size:16px;fill:#000;"
     id="text266">sign</text>
<text
     x="307.725px"
     y="235.592px"
     style="font-family:'HelveticaNeue';font-size:16px;fill:#000;"
     id="text268">distribute</text>
<g
     id="g280"><path
       d="M569.373,256.428c-7.326,0.208 -13.073,12.205 -10.363,16.274c2.71,4.068 18.613,4.068 21.203,0c2.591,-4.069 -3.275,-16.488 -10.84,-16.274Z"
       style="fill:#2880b9;stroke-width:1.5px;stroke-linecap:butt;stroke-linejoin:miter;stroke-miterlimit:4;stroke:#383838;"
       id="path270" /><path
       d="M582.938,265.081c1.11,1.494 0.581,3.771 -1.182,5.083c-1.763,1.312 -4.097,1.164 -5.208,-0.331l-0.017,-0.021c-0.648,-0.89 -0.765,-4.706 0.389,-5.503c1.271,-0.876 4.906,-0.721 6.018,0.772Z"
       style="fill:#fca;stroke-width:1.5px;stroke-linecap:butt;stroke-linejoin:miter;stroke-miterlimit:4;stroke:#383838;"
       id="path272" /><path
       d="M562.488,257.208l12.212,0c0,0 0.195,12.134 -4.158,12.134c-4.092,0 -8.054,-12.134 -8.054,-12.134Z"
       style="fill:#fff;stroke-width:1.5px;stroke-linecap:butt;stroke-linejoin:miter;stroke-miterlimit:4;stroke:#383838;"
       id="path274" /><path
       d="M578.694,254.598c0,5.367 -4.082,10.174 -9.113,10.174c-5.03,0 -9.112,-4.559 -9.112,-10.174c0,-5.616 4.082,-10.175 9.112,-10.175c5.005,0 9.113,3.173 9.113,10.175Z"
       style="fill:#fca;stroke-width:1.5px;stroke-linecap:butt;stroke-linejoin:miter;stroke-miterlimit:4;stroke:#383838;"
       id="path276" /><path
       d="M566.64,248.795c0,0 4.238,4.48 8.588,4.13c4.357,-0.351 7.291,-2.38 7.291,-2.38c0,0 -2.246,-12.247 -12.284,-12.45c-7.859,-0.165 -11.728,7.378 -12.874,12.45c-1.162,5.137 0.431,5.117 2.129,4.679c1.699,-0.437 7.15,-6.429 7.15,-6.429Z"
       style="fill:#d38d5f;stroke-width:1.5px;stroke-linecap:butt;stroke-linejoin:miter;stroke-miterlimit:4;stroke:#383838;"
       id="path278" /></g><g
     id="g292"><path
       d="M569.373,112.801c-7.326,0.208 -13.073,12.205 -10.363,16.274c2.71,4.068 18.613,4.068 21.203,0c2.591,-4.069 -3.275,-16.489 -10.84,-16.274Z"
       style="fill:#fccb00;stroke-width:1.5px;stroke-linecap:butt;stroke-linejoin:miter;stroke-miterlimit:4;stroke:#383838;"
       id="path282" /><path
       d="M582.938,121.454c1.11,1.493 0.581,3.771 -1.182,5.082c-1.763,1.312 -4.097,1.165 -5.208,-0.33l-0.017,-0.022c-0.648,-0.889 -0.765,-4.705 0.389,-5.502c1.271,-0.877 4.906,-0.721 6.018,0.772Z"
       style="fill:#fca;stroke-width:1.5px;stroke-linecap:butt;stroke-linejoin:miter;stroke-miterlimit:4;stroke:#383838;"
       id="path284" /><path
       d="M562.488,113.581l12.212,0c0,0 0.195,12.134 -4.158,12.134c-4.092,0 -8.054,-12.134 -8.054,-12.134Z"
       style="fill:#fff;stroke-width:1.5px;stroke-linecap:butt;stroke-linejoin:miter;stroke-miterlimit:4;stroke:#383838;"
       id="path286" /><path
       d="M578.694,110.97c0,5.368 -4.082,10.175 -9.113,10.175c-5.03,0 -9.112,-4.559 -9.112,-10.175c0,-5.615 4.082,-10.175 9.112,-10.175c5.005,0 9.113,3.174 9.113,10.175Z"
       style="fill:#fca;stroke-width:1.5px;stroke-linecap:butt;stroke-linejoin:miter;stroke-miterlimit:4;stroke:#383838;"
       id="path288" /><path
       d="M566.64,105.168c0,0 4.238,4.479 8.588,4.13c4.357,-0.351 7.291,-2.38 7.291,-2.38c0,0 -2.246,-12.248 -12.284,-12.451c-7.859,-0.164 -11.728,7.379 -12.874,12.451c-1.162,5.136 0.431,5.117 2.129,4.679c1.699,-0.437 7.15,-6.429 7.15,-6.429Z"
       style="fill:#d38d5f;stroke-width:1.5px;stroke-linecap:butt;stroke-linejoin:miter;stroke-miterlimit:4;stroke:#383838;"
       id="path290" /></g><g
     transform="translate(135.00154,-21.472537)"
     id="g298"><text
       x="277.28601"
       y="150.40401"
       style="font-size:16px;font-family:HelveticaNeue-Bold;fill:#000000"
       id="text294">Release Manager</text>
<text
       x="404.07001"
       y="150.40401"
       style="font-size:16px;font-family:HelveticaNeue-Bold;fill:#000000"
       id="text296" />
</g><text
     x="410.06052"
     y="271.21228"
     style="font-size:16px;font-family:HelveticaNeue-Bold;fill:#000000"
     id="text302">T<tspan
   x="418.36453 424.58853"
   y="271.21228 271.21228"
   id="tspan300">ru</tspan>sted Authority</text>
<path
     d="M293.044,365.599c2.022,-5.345 10.164,-9.501 19.709,-9.501c9.544,0 17.686,4.156 19.708,9.501c7.729,-2.312 17.835,-0.79 23.786,4.031c5.951,4.821 5.998,11.525 0.79,15.879c7.617,2.463 12.076,8.516 9.952,14.528c-2.124,6.011 -10.207,10.215 -18.723,10.299c1.768,5.383 -2.777,11.409 -11.376,14.085c-8.599,2.675 -18.726,1.213 -24.137,-3.036c-5.412,4.249 -15.539,5.711 -24.138,3.036c-8.599,-2.676 -13.144,-8.702 -11.376,-14.085c-8.516,-0.084 -16.599,-4.288 -18.723,-10.299c-2.124,-6.012 2.336,-12.065 9.952,-14.528c-5.208,-4.354 -5.161,-11.058 0.79,-15.879c5.951,-4.821 16.057,-6.343 23.786,-4.031Z"
     style="fill:#fff;stroke-width:2px;stroke:#000;"
     id="path304" /><defs
     id="defs326"><linearGradient
       id="_Linear1"
       x1="0"
       y1="0"
       x2="1"
       y2="0"
       gradientUnits="userSpaceOnUse"
       gradientTransform="matrix(4.1309e-17,1.00958,-0.674628,6.18189e-17,415.665,65.9391)"><stop
         offset="0%"
         style="stop-color:#fff;stop-opacity:1"
         id="stop306" /><stop
         offset="100%"
         style="stop-color:#fccb00;stop-opacity:1"
         id="stop308" /></linearGradient><linearGradient
       id="_Linear2"
       x1="0"
       y1="0"
       x2="1"
       y2="0"
       gradientUnits="userSpaceOnUse"
       gradientTransform="matrix(4.1309e-17,1.00958,-0.674628,6.18189e-17,415.665,219.939)"><stop
         offset="0%"
         style="stop-color:#fff;stop-opacity:1"
         id="stop311" /><stop
         offset="100%"
         style="stop-color:#fccb00;stop-opacity:1"
         id="stop313" /></linearGradient><linearGradient
       id="_Linear3"
       x1="0"
       y1="0"
       x2="1"
       y2="0"
       gradientUnits="userSpaceOnUse"
       gradientTransform="matrix(4.1309e-17,1.00958,-0.674628,6.18189e-17,415.665,85.6859)"><stop
         offset="0%"
         style="stop-color:#fff;stop-opacity:1"
         id="stop316" /><stop
         offset="100%"
         style="stop-color:#fccb00;stop-opacity:1"
         id="stop318" /></linearGradient><linearGradient
       id="_Linear4"
       x1="0"
       y1="0"
       x2="1"
       y2="0"
       gradientUnits="userSpaceOnUse"
       gradientTransform="matrix(4.1309e-17,1.00958,-0.674628,6.18189e-17,415.665,239.686)"><stop
         offset="0%"
         style="stop-color:#fff;stop-opacity:1"
         id="stop321" /><stop
         offset="100%"
         style="stop-color:#fccb00;stop-opacity:1"
         id="stop323" /></linearGradient></defs><text
     xml:space="preserve"
     style="font-style:normal;font-weight:normal;font-size:40px;line-height:1.25;font-family:sans-serif;letter-spacing:0px;word-spacing:0px;fill:#000000;fill-opacity:1;stroke:none"
     x="31.280485"
     y="29.848637"
     id="text168"><tspan
       sodipodi:role="line"
       id="tspan166"
       x="31.280485"
       y="29.848637"
       style="font-size:16px">CernVM-FS Repository</tspan></text>
</svg>