<?xml version="1.0" encoding="UTF-8" standalone="no"?>
<svg
   xmlns:dc="http://purl.org/dc/elements/1.1/"
   xmlns:cc="http://creativecommons.org/ns#"
   xmlns:rdf="http://www.w3.org/1999/02/22-rdf-syntax-ns#"
   xmlns:svg="http://www.w3.org/2000/svg"
   xmlns="http://www.w3.org/2000/svg"
   xmlns:sodipodi="http://sodipodi.sourceforge.net/DTD/sodipodi-0.dtd"
   xmlns:inkscape="http://www.inkscape.org/namespaces/inkscape"
   width="100%"
   height="100%"
   viewBox="0 0 360 250"
   version="1.1"
   xml:space="preserve"
   style="fill-rule:evenodd;clip-rule:evenodd;stroke-linecap:round;stroke-linejoin:round;stroke-miterlimit:1.41421;"
   id="svg94"
   sodipodi:docname="sharedcache.svg"
   inkscape:version="0.92.2 (5c3e80d, 2017-08-06)"><metadata
     id="metadata100"><rdf:RDF><cc:Work
         rdf:about=""><dc:format>image/svg+xml</dc:format><dc:type
           rdf:resource="http://purl.org/dc/dcmitype/StillImage" /></cc:Work></rdf:RDF></metadata><defs
     id="defs98" /><sodipodi:namedview
     pagecolor="#ffffff"
     bordercolor="#666666"
     borderopacity="1"
     objecttolerance="10"
     gridtolerance="10"
     guidetolerance="10"
     inkscape:pageopacity="0"
     inkscape:pageshadow="2"
     inkscape:window-width="2560"
     inkscape:window-height="1341"
     id="namedview96"
     showgrid="false"
     inkscape:zoom="3.4666667"
     inkscape:cx="132.08411"
     inkscape:cy="143.48281"
     inkscape:window-x="0"
     inkscape:window-y="28"
     inkscape:window-maximized="1"
     inkscape:current-layer="svg94" /><path
     d="M346.778,32.367c0,-1.646 -1.336,-2.982 -2.982,-2.982l-122.452,0c-1.646,0 -2.982,1.336 -2.982,2.982l0,41.519c0,1.645 1.336,2.981 2.982,2.981l122.452,0c1.646,0 2.982,-1.336 2.982,-2.981l0,-41.519Z"
     style="fill:#fff;stroke-width:1px;stroke:#767474;"
     id="path2" /><path
     d="M136.516,209.265c0,-3.702 -3.006,-6.708 -6.708,-6.708l-96.347,0c-3.702,0 -6.708,3.006 -6.708,6.708l0,13.416c0,3.702 3.006,6.708 6.708,6.708l96.347,0c3.702,0 6.708,-3.006 6.708,-6.708l0,-13.416Z"
     style="fill:#fff;stroke-width:1px;stroke:#767474;"
     id="path4" /><g
     id="g12"><path
       d="M145.638,32.823c0,-1.618 -1.313,-2.931 -2.931,-2.931l-122.554,0c-1.618,0 -2.931,1.313 -2.931,2.931l0,146.274c0,1.618 1.313,2.931 2.931,2.931l122.554,0c1.618,0 2.931,-1.313 2.931,-2.931l0,-146.274Z"
       style="fill:#fff;stroke-width:1px;stroke:#767474;"
       id="path6" /><path
       d="M143.638,34.569c0,-1.617 -1.313,-2.93 -2.931,-2.93l-122.554,0c-1.618,0 -2.931,1.313 -2.931,2.93l0,146.275c0,1.617 1.313,2.93 2.931,2.93l122.554,0c1.618,0 2.931,-1.313 2.931,-2.93l0,-146.275Z"
       style="fill:#fff;stroke-width:1px;stroke:#353535;"
       id="path8" /><path
       d="M141.638,36.316c0,-1.618 -1.313,-2.931 -2.931,-2.931l-122.554,0c-1.618,0 -2.931,1.313 -2.931,2.931l0,146.274c0,1.618 1.313,2.931 2.931,2.931l122.554,0c1.618,0 2.931,-1.313 2.931,-2.931l0,-146.274Z"
       style="fill:#fff;stroke-width:1px;stroke:#000;"
       id="path10" /></g><text
     x="22.746"
     y="21.349001"
     style="font-size:12px;font-family:HelveticaNeue;fill:#000000"
     id="text16">cvmfs2 processes<tspan
   x="75.882004"
   y="21.349001"
   id="tspan14" /></text>
<text
     x="233.892"
     y="21.349001"
     style="font-size:12px;font-family:HelveticaNeue;fill:#000000"
     id="text20">cvmfs2 processes </text>
<path
     d="M132.516,49.924c0,-3.703 -3.006,-6.708 -6.708,-6.708l-96.347,0c-3.702,0 -6.708,3.005 -6.708,6.708l0,13.415c0,3.702 3.006,6.708 6.708,6.708l96.347,0c3.702,0 6.708,-3.006 6.708,-6.708l0,-13.415Z"
     style="fill:#2880b9;"
     id="path22" /><path
     d="M132.516,153.815c0,-3.703 -3.006,-6.708 -6.708,-6.708l-96.347,0c-3.702,0 -6.708,3.005 -6.708,6.708l0,13.415c0,3.702 3.006,6.708 6.708,6.708l96.347,0c3.702,0 6.708,-3.006 6.708,-6.708l0,-13.415Z"
     style="fill:#16bb4e;"
     id="path24" /><text
     x="40.422px"
     y="60.637px"
     style="font-family:'HelveticaNeue';font-size:12px;fill:#fff;"
     id="text26">FUSE module</text>
<text
     x="34.758px"
     y="164.528px"
     style="font-family:'HelveticaNeue';font-size:12px;fill:#fff;"
     id="text28">Cache Manager</text>
<path
     d="M41.511,69.528l0,78.579"
     style="fill:none;stroke-width:3px;stroke:#1b2e3a;"
     id="path30" /><g
     transform="matrix(1,0,0,1,22.2972,-13.0541)"
     id="g36"><text
       x="26.435px"
       y="117.162px"
       style="font-family:'HelveticaNeue';font-size:12px;fill:#000;"
       id="text32">anonymous</text>
<text
       x="26.435px"
       y="129.498px"
       style="font-family:'HelveticaNeue';font-size:12px;fill:#000;"
       id="text34">pipe</text>
</g><path
     d="M134.516,211.265c0,-3.702 -3.006,-6.708 -6.708,-6.708l-96.347,0c-3.702,0 -6.708,3.006 -6.708,6.708l0,13.416c0,3.702 3.006,6.708 6.708,6.708l96.347,0c3.702,0 6.708,-3.006 6.708,-6.708l0,-13.416Z"
     style="fill:#fff;stroke-width:1px;stroke:#353535;"
     id="path38" /><path
     d="M132.516,213.265c0,-3.702 -3.006,-6.708 -6.708,-6.708l-96.347,0c-3.702,0 -6.708,3.006 -6.708,6.708l0,13.416c0,3.702 3.006,6.708 6.708,6.708l96.347,0c3.702,0 6.708,-3.006 6.708,-6.708l0,-13.416Z"
     style="fill:#fff;stroke-width:1px;stroke:#000;"
     id="path40" /><path
     d="M333.505,213.265c0,-3.702 -3.006,-6.708 -6.708,-6.708l-96.347,0c-3.702,0 -6.708,3.006 -6.708,6.708l0,13.416c0,3.702 3.006,6.708 6.708,6.708l96.347,0c3.702,0 6.708,-3.006 6.708,-6.708l0,-13.416Z"
     style="fill:#fff;stroke-width:1px;stroke:#000;"
     id="path42" /><text
     x="26.087076"
     y="224.84439"
     style="font-size:12px;font-family:HelveticaNeue;fill:#000000"
     id="text44">Exclusive Caches</text>
<text
     x="236.71846"
     y="224.55592"
     style="font-size:12px;font-family:HelveticaNeue;fill:#000000"
     id="text48"
     inkscape:transform-center-x="-0.28846154">Shared Cache</text>
<path
     d="M72.161,199.165l5.609,9.392l5.914,-9.612"
     style="fill:none;stroke-width:3px;stroke:#1b2e3a;"
     id="path50" /><path
     d="M72.161,182.337l5.609,-9.392l5.914,9.612"
     style="fill:none;stroke-width:3px;stroke:#1b2e3a;"
     id="path52" /><path
     d="M77.79,173.938l-0.01,34.619"
     style="fill:none;stroke-width:3px;stroke:#1b2e3a;"
     id="path54" /><path
     d="M35.908,78.92l5.609,-9.392l5.914,9.612"
     style="fill:none;stroke-width:3px;stroke:#1b2e3a;"
     id="path56" /><path
     d="M35.895,138.721l5.609,9.392l5.915,-9.613"
     style="fill:none;stroke-width:3px;stroke:#1b2e3a;"
     id="path58" /><path
     d="M344.778,34.367c0,-1.646 -1.336,-2.982 -2.982,-2.982l-122.452,0c-1.646,0 -2.982,1.336 -2.982,2.982l0,41.519c0,1.645 1.336,2.981 2.982,2.981l122.452,0c1.646,0 2.982,-1.336 2.982,-2.981l0,-41.519Z"
     style="fill:#fff;stroke-width:1px;stroke:#353535;"
     id="path60" /><path
     d="M342.778,36.367c0,-1.646 -1.336,-2.982 -2.982,-2.982l-122.452,0c-1.646,0 -2.982,1.336 -2.982,2.982l0,41.519c0,1.645 1.336,2.981 2.982,2.981l122.452,0c1.646,0 2.982,-1.336 2.982,-2.981l0,-41.519Z"
     style="fill:#fff;stroke-width:1px;stroke:#000;"
     id="path62" /><path
     d="M342.778,138.87c0,-1.697 -1.378,-3.075 -3.075,-3.075l-122.266,0c-1.697,0 -3.075,1.378 -3.075,3.075l0,42.82c0,1.697 1.378,3.075 3.075,3.075l122.266,0c1.697,0 3.075,-1.378 3.075,-3.075l0,-42.82Z"
     style="fill:#fff;stroke-width:1px;stroke:#000;"
     id="path64" /><path
     d="M333.452,49.924c0,-3.703 -3.006,-6.708 -6.708,-6.708l-96.348,0c-3.702,0 -6.707,3.005 -6.707,6.708l0,13.415c0,3.702 3.005,6.708 6.707,6.708l96.348,0c3.702,0 6.708,-3.006 6.708,-6.708l0,-13.415Z"
     style="fill:#2880b9;"
     id="path66" /><path
     d="M333.452,153.821c0,-3.702 -3.006,-6.708 -6.708,-6.708l-96.348,0c-3.702,0 -6.707,3.006 -6.707,6.708l0,13.415c0,3.703 3.005,6.708 6.707,6.708l96.348,0c3.702,0 6.708,-3.005 6.708,-6.708l0,-13.415Z"
     style="fill:#16bb4e;"
     id="path68" /><text
     x="241.358px"
     y="60.637px"
     style="font-family:'HelveticaNeue';font-size:12px;fill:#fff;"
     id="text70">FUSE module</text>
<text
     x="235.694px"
     y="164.535px"
     style="font-family:'HelveticaNeue';font-size:12px;fill:#fff;"
     id="text72">Cache Manager</text>
<g
     transform="matrix(1,0,0,1,226.711,-13.0541)"
     id="g78"><text
       x="26.435px"
       y="117.162px"
       style="font-family:'HelveticaNeue';font-size:12px;fill:#000;"
       id="text74">named</text>
<text
       x="26.435px"
       y="129.498px"
       style="font-family:'HelveticaNeue';font-size:12px;fill:#000;"
       id="text76">pipe</text>
</g><path
     d="M180.099,8.38l0,233.24"
     style="fill:none;stroke-width:1px;stroke:#767474;"
     id="path80" /><path
     d="M243.511,69.528l0,78.579"
     style="fill:none;stroke-width:3px;stroke:#1b2e3a;"
     id="path82" /><path
     d="M237.908,78.92l5.609,-9.392l5.914,9.612"
     style="fill:none;stroke-width:3px;stroke:#1b2e3a;"
     id="path84" /><path
     d="M237.895,138.721l5.609,9.392l5.915,-9.613"
     style="fill:none;stroke-width:3px;stroke:#1b2e3a;"
     id="path86" /><path
     d="M273.366,199.165l5.609,9.392l5.914,-9.612"
     style="fill:none;stroke-width:3px;stroke:#1b2e3a;"
     id="path88" /><path
     d="M273.366,182.337l5.609,-9.392l5.914,9.612"
     style="fill:none;stroke-width:3px;stroke:#1b2e3a;"
     id="path90" /><path
     d="M278.995,173.938l-0.01,34.619"
     style="fill:none;stroke-width:3px;stroke:#1b2e3a;"
     id="path92" /></svg>