<?xml version="1.0" standalone="no"?><!DOCTYPE svg PUBLIC "-//W3C//DTD SVG 1.1//EN" "http://www.w3.org/Graphics/SVG/1.1/DTD/svg11.dtd"><svg width="100%" height="100%" viewBox="0 0 360 250" version="1.1" xmlns="http://www.w3.org/2000/svg" xmlns:xlink="http://www.w3.org/1999/xlink" xml:space="preserve" style="fill-rule:evenodd;clip-rule:evenodd;stroke-linecap:round;stroke-linejoin:round;stroke-miterlimit:1.41421;"><path d="M346.778,32.367c0,-1.646 -1.336,-2.982 -2.982,-2.982l-122.452,0c-1.646,0 -2.982,1.336 -2.982,2.982l0,41.519c0,1.645 1.336,2.981 2.982,2.981l122.452,0c1.646,0 2.982,-1.336 2.982,-2.981l0,-41.519Z" style="fill:#fff;stroke-width:1px;stroke:#767474;"/><path d="M136.516,209.265c0,-3.702 -3.006,-6.708 -6.708,-6.708l-96.347,0c-3.702,0 -6.708,3.006 -6.708,6.708l0,13.416c0,3.702 3.006,6.708 6.708,6.708l96.347,0c3.702,0 6.708,-3.006 6.708,-6.708l0,-13.416Z" style="fill:#fff;stroke-width:1px;stroke:#767474;"/><g><path d="M145.638,32.823c0,-1.618 -1.313,-2.931 -2.931,-2.931l-122.554,0c-1.618,0 -2.931,1.313 -2.931,2.931l0,146.274c0,1.618 1.313,2.931 2.931,2.931l122.554,0c1.618,0 2.931,-1.313 2.931,-2.931l0,-146.274Z" style="fill:#fff;stroke-width:1px;stroke:#767474;"/><path d="M143.638,34.569c0,-1.617 -1.313,-2.93 -2.931,-2.93l-122.554,0c-1.618,0 -2.931,1.313 -2.931,2.93l0,146.275c0,1.617 1.313,2.93 2.931,2.93l122.554,0c1.618,0 2.931,-1.313 2.931,-2.93l0,-146.275Z" style="fill:#fff;stroke-width:1px;stroke:#353535;"/><path d="M141.638,36.316c0,-1.618 -1.313,-2.931 -2.931,-2.931l-122.554,0c-1.618,0 -2.931,1.313 -2.931,2.931l0,146.274c0,1.618 1.313,2.931 2.931,2.931l122.554,0c1.618,0 2.931,-1.313 2.931,-2.931l0,-146.274Z" style="fill:#fff;stroke-width:1px;stroke:#000;"/></g><text x="22.746px" y="21.349px" style="font-family:'HelveticaNeue';font-size:12px;fill:#000;">cvmfs2 pr<tspan x="75.882px 82.77px " y="21.349px 21.349px ">oc</tspan>esses</text><text x="233.892px" y="21.349px" style="font-family:'HelveticaNeue';font-size:12px;fill:#000;">cvmfs2 pr<tspan x="287.028px 293.916px " y="21.349px 21.349px ">oc</tspan>esses</text><path d="M132.516,49.924c0,-3.703 -3.006,-6.708 -6.708,-6.708l-96.347,0c-3.702,0 -6.708,3.005 -6.708,6.708l0,13.415c0,3.702 3.006,6.708 6.708,6.708l96.347,0c3.702,0 6.708,-3.006 6.708,-6.708l0,-13.415Z" style="fill:#2880b9;"/><path d="M132.516,153.815c0,-3.703 -3.006,-6.708 -6.708,-6.708l-96.347,0c-3.702,0 -6.708,3.005 -6.708,6.708l0,13.415c0,3.702 3.006,6.708 6.708,6.708l96.347,0c3.702,0 6.708,-3.006 6.708,-6.708l0,-13.415Z" style="fill:#16bb4e;"/><text x="40.422px" y="60.637px" style="font-family:'HelveticaNeue';font-size:12px;fill:#fff;">FUSE module</text><text x="34.758px" y="164.528px" style="font-family:'HelveticaNeue';font-size:12px;fill:#fff;">Cache Manager</text><path d="M41.511,69.528l0,78.579" style="fill:none;stroke-width:3px;stroke:#1b2e3a;"/><g transform="matrix(1,0,0,1,22.2972,-13.0541)"><text x="26.435px" y="117.162px" style="font-family:'HelveticaNeue';font-size:12px;fill:#000;">anonymous</text><text x="26.435px" y="129.498px" style="font-family:'HelveticaNeue';font-size:12px;fill:#000;">pipe</text></g><path d="M134.516,211.265c0,-3.702 -3.006,-6.708 -6.708,-6.708l-96.347,0c-3.702,0 -6.708,3.006 -6.708,6.708l0,13.416c0,3.702 3.006,6.708 6.708,6.708l96.347,0c3.702,0 6.708,-3.006 6.708,-6.708l0,-13.416Z" style="fill:#fff;stroke-width:1px;stroke:#353535;"/><path d="M132.516,213.265c0,-3.702 -3.006,-6.708 -6.708,-6.708l-96.347,0c-3.702,0 -6.708,3.006 -6.708,6.708l0,13.416c0,3.702 3.006,6.708 6.708,6.708l96.347,0c3.702,0 6.708,-3.006 6.708,-6.708l0,-13.416Z" style="fill:#fff;stroke-width:1px;stroke:#000;"/><path d="M333.505,213.265c0,-3.702 -3.006,-6.708 -6.708,-6.708l-96.347,0c-3.702,0 -6.708,3.006 -6.708,6.708l0,13.416c0,3.702 3.006,6.708 6.708,6.708l96.347,0c3.702,0 6.708,-3.006 6.708,-6.708l0,-13.416Z" style="fill:#fff;stroke-width:1px;stroke:#000;"/><text x="30.414px" y="223.979px" style="font-family:'HelveticaNeue';font-size:12px;fill:#000;">Exclusive Caches</text><text x="243.93px" y="223.979px" style="font-family:'HelveticaNeue';font-size:12px;fill:#000;">Shar<tspan x="268.602px 275.046px " y="223.979px 223.979px ">ed</tspan> Cache</text><path d="M72.161,199.165l5.609,9.392l5.914,-9.612" style="fill:none;stroke-width:3px;stroke:#1b2e3a;"/><path d="M72.161,182.337l5.609,-9.392l5.914,9.612" style="fill:none;stroke-width:3px;stroke:#1b2e3a;"/><path d="M77.79,173.938l-0.01,34.619" style="fill:none;stroke-width:3px;stroke:#1b2e3a;"/><path d="M35.908,78.92l5.609,-9.392l5.914,9.612" style="fill:none;stroke-width:3px;stroke:#1b2e3a;"/><path d="M35.895,138.721l5.609,9.392l5.915,-9.613" style="fill:none;stroke-width:3px;stroke:#1b2e3a;"/><path d="M344.778,34.367c0,-1.646 -1.336,-2.982 -2.982,-2.982l-122.452,0c-1.646,0 -2.982,1.336 -2.982,2.982l0,41.519c0,1.645 1.336,2.981 2.982,2.981l122.452,0c1.646,0 2.982,-1.336 2.982,-2.981l0,-41.519Z" style="fill:#fff;stroke-width:1px;stroke:#353535;"/><path d="M342.778,36.367c0,-1.646 -1.336,-2.982 -2.982,-2.982l-122.452,0c-1.646,0 -2.982,1.336 -2.982,2.982l0,41.519c0,1.645 1.336,2.981 2.982,2.981l122.452,0c1.646,0 2.982,-1.336 2.982,-2.981l0,-41.519Z" style="fill:#fff;stroke-width:1px;stroke:#000;"/><path d="M342.778,138.87c0,-1.697 -1.378,-3.075 -3.075,-3.075l-122.266,0c-1.697,0 -3.075,1.378 -3.075,3.075l0,42.82c0,1.697 1.378,3.075 3.075,3.075l122.266,0c1.697,0 3.075,-1.378 3.075,-3.075l0,-42.82Z" style="fill:#fff;stroke-width:1px;stroke:#000;"/><path d="M333.452,49.924c0,-3.703 -3.006,-6.708 -6.708,-6.708l-96.348,0c-3.702,0 -6.707,3.005 -6.707,6.708l0,13.415c0,3.702 3.005,6.708 6.707,6.708l96.348,0c3.702,0 6.708,-3.006 6.708,-6.708l0,-13.415Z" style="fill:#2880b9;"/><path d="M333.452,153.821c0,-3.702 -3.006,-6.708 -6.708,-6.708l-96.348,0c-3.702,0 -6.707,3.006 -6.707,6.708l0,13.415c0,3.703 3.005,6.708 6.707,6.708l96.348,0c3.702,0 6.708,-3.005 6.708,-6.708l0,-13.415Z" style="fill:#16bb4e;"/><text x="241.358px" y="60.637px" style="font-family:'HelveticaNeue';font-size:12px;fill:#fff;">FUSE module</text><text x="235.694px" y="164.535px" style="font-family:'HelveticaNeue';font-size:12px;fill:#fff;">Cache Manager</text><g transform="matrix(1,0,0,1,226.711,-13.0541)"><text x="26.435px" y="117.162px" style="font-family:'HelveticaNeue';font-size:12px;fill:#000;">named</text><text x="26.435px" y="129.498px" style="font-family:'HelveticaNeue';font-size:12px;fill:#000;">pipe</text></g><path d="M180.099,8.38l0,233.24" style="fill:none;stroke-width:1px;stroke:#767474;"/><path d="M243.511,69.528l0,78.579" style="fill:none;stroke-width:3px;stroke:#1b2e3a;"/><path d="M237.908,78.92l5.609,-9.392l5.914,9.612" style="fill:none;stroke-width:3px;stroke:#1b2e3a;"/><path d="M237.895,138.721l5.609,9.392l5.915,-9.613" style="fill:none;stroke-width:3px;stroke:#1b2e3a;"/><path d="M273.366,199.165l5.609,9.392l5.914,-9.612" style="fill:none;stroke-width:3px;stroke:#1b2e3a;"/><path d="M273.366,182.337l5.609,-9.392l5.914,9.612" style="fill:none;stroke-width:3px;stroke:#1b2e3a;"/><path d="M278.995,173.938l-0.01,34.619" style="fill:none;stroke-width:3px;stroke:#1b2e3a;"/></svg>